<svg width="96" height="96" xmlns="http://www.w3.org/2000/svg" xmlns:xlink="http://www.w3.org/1999/xlink" xml:space="preserve" overflow="hidden"><defs><clipPath id="clip0"><rect x="263" y="225" width="96" height="96"/></clipPath><clipPath id="clip1"><path d="M312.107 191.053 389.152 269.407 309.796 347.439 232.751 269.087Z" fill-rule="evenodd" clip-rule="evenodd"/></clipPath><clipPath id="clip2"><path d="M312.107 191.053 389.152 269.407 309.796 347.439 232.751 269.087Z" fill-rule="evenodd" clip-rule="evenodd"/></clipPath><clipPath id="clip3"><path d="M312.107 191.053 389.152 269.407 290.777 366.141 213.732 287.788Z" fill-rule="evenodd" clip-rule="evenodd"/></clipPath></defs><g clip-path="url(#clip0)" transform="translate(-263 -225)"><g clip-path="url(#clip1)"><g clip-path="url(#clip2)"><g clip-path="url(#clip3)"><path d="M49.8276 71.5656 60.059 71.5656 62.4312 15.3912 54.9433 6.22263 47.4554 15.3912Z" fill="#E8E8E8" transform="matrix(0.701134 0.713039 -0.713024 0.70114 311.889 191.267)"/><path d="M67.1064 74.0075 42.779 74.0075C38.5402 74.0075 35.0919 77.4558 35.0919 81.6946 35.0919 83.0413 36.1877 84.1364 37.5338 84.1364 38.8801 84.1364 39.9758 83.0413 39.9758 81.6946 39.9758 80.1748 41.26 78.8914 42.779 78.8914L51.4867 78.8914C52.1616 78.8914 52.7077 79.438 52.7077 80.1123L52.7077 90.8086C52.7077 91.263 52.4561 91.6791 52.053 91.8901 49.9856 92.974 48.7001 95.0934 48.7001 97.4208 48.7001 100.863 51.501 103.664 54.9433 103.664 58.3856 103.664 61.1864 100.863 61.1864 97.4208 61.1864 95.0934 59.9011 92.974 57.8336 91.8901 57.4305 91.6791 57.179 91.263 57.179 90.8086L57.179 80.1123C57.179 79.438 57.725 78.8914 58.4 78.8914L67.1064 78.8914C68.6266 78.8914 69.9108 80.1748 69.9108 81.6946 69.9108 83.0413 71.0066 84.1364 72.3527 84.1364 73.6989 84.1364 74.7947 83.0413 74.7947 81.6946 74.7947 77.4558 71.3452 74.0075 67.1064 74.0075Z" fill="#E8E8E8" transform="matrix(0.701134 0.713039 -0.713024 0.70114 311.889 191.267)"/><text fill="#E8E8E8" font-family="Arial,Arial_MSFontService,sans-serif" font-weight="700" font-size="5" transform="matrix(0.856057 0.870594 -0.870575 0.856065 220.479 281)">Created by iconcheese</text><text fill="#E8E8E8" font-family="Arial,Arial_MSFontService,sans-serif" font-weight="700" font-size="5" transform="matrix(0.856057 0.870594 -0.870575 0.856065 216.126 285)">from the Noun Project</text></g></g></g></g></svg>