<svg width="281" height="283" xmlns="http://www.w3.org/2000/svg" xmlns:xlink="http://www.w3.org/1999/xlink" xml:space="preserve" overflow="hidden"><defs><clipPath id="clip0"><rect x="541" y="127" width="281" height="283"/></clipPath></defs><g clip-path="url(#clip0)" transform="translate(-541 -127)"><path d="M207.957 188.141 188.137 207.961 98.24 118.064C98.0688 117.936 97.9403 117.765 97.8547 117.593L75.2093 78.4242C74.6956 77.4824 74.8668 76.3266 75.5946 75.5989 76.3223 74.8711 77.4781 74.6999 78.4199 75.2136L117.632 97.9018C117.803 97.9874 117.932 98.1158 118.103 98.2443L207.957 188.141ZM239.934 220.119 220.114 239.939 260.482 280.349 267.117 270.247C268.016 268.877 269.087 267.849 270.371 267.036L280.345 260.486 239.934 220.119ZM347.511 320.246C344.257 316.95 339.977 314.981 335.396 314.639L333.727 313.012C333.298 312.584 332.742 312.327 332.1 312.327L326.663 312.327 302.177 287.841 297.511 294.947 297.254 295.247C296.955 295.632 296.655 296.017 296.312 296.36 295.842 296.83 295.413 297.173 294.943 297.515L287.965 302.096 312.451 326.582 312.451 332.019C312.451 332.618 312.708 333.217 313.136 333.645L314.677 335.229C315.02 339.852 316.989 344.219 320.285 347.515 327.819 355.049 340.062 355.049 347.554 347.515 355.045 339.981 355.045 327.781 347.511 320.246ZM289.874 290.619C289.998 290.525 290.122 290.435 290.247 290.311 290.371 290.187 290.465 290.062 290.555 289.938L305.302 267.524C308.115 267.926 311.115 267.027 313.277 264.866 316.954 261.218 316.954 255.251 313.277 251.574 309.63 247.897 303.663 247.897 299.985 251.574 297.819 253.74 296.925 256.706 297.327 259.549L274.913 274.296C274.664 274.45 274.45 274.669 274.262 274.947L259.515 297.361C256.702 296.959 253.701 297.858 251.54 300.02 247.862 303.667 247.862 309.634 251.54 313.311 255.187 316.989 261.154 316.989 264.831 313.311 266.998 311.145 267.892 308.179 267.49 305.336L289.874 290.619ZM303.29 254.849C305.144 252.995 308.145 252.995 309.998 254.849 311.852 256.702 311.852 259.703 309.998 261.557 308.145 263.41 305.144 263.41 303.29 261.557 301.437 259.703 301.437 256.702 303.29 254.849ZM261.552 310.002C259.699 311.856 256.698 311.856 254.844 310.002 252.991 308.149 252.991 305.148 254.844 303.294 256.698 301.441 259.699 301.441 261.552 303.294 263.41 305.148 263.41 308.145 261.552 310.002ZM352.476 75.5989C351.749 74.8711 350.593 74.6999 349.651 75.2136L310.482 97.9018C310.268 97.9874 310.139 98.1158 309.968 98.2443L147.726 260.486 157.829 267.122C159.199 268.021 160.269 269.091 161.039 270.375L167.589 280.349 329.831 118.064C330.002 117.936 330.131 117.765 330.216 117.593L352.862 78.4242C353.375 77.5252 353.204 76.3266 352.476 75.5989ZM133.257 297.601 133.043 297.473C132.615 297.13 132.144 296.745 131.716 296.274 131.245 295.846 130.902 295.418 130.603 294.99L125.894 287.884 101.493 312.284 96.014 312.284C95.4147 312.284 94.8154 312.541 94.3873 312.969L92.7606 314.596C88.1801 314.938 83.8993 316.907 80.6031 320.204 73.1117 327.738 73.1117 339.981 80.6031 347.472 88.1373 354.964 100.38 354.964 107.872 347.472 111.168 344.176 113.18 339.81 113.48 335.186L115.064 333.602C115.492 333.174 115.706 332.575 115.706 331.933L115.706 326.496 140.106 302.139 133.257 297.601ZM168.531 297.327 153.783 274.913C153.629 274.664 153.411 274.45 153.133 274.262L130.718 259.515C131.121 256.702 130.222 253.701 128.06 251.54 124.413 247.862 118.445 247.862 114.768 251.54 111.091 255.187 111.091 261.154 114.768 264.831 116.934 266.998 119.901 267.892 122.743 267.49L137.491 289.904C137.585 290.028 137.675 290.152 137.799 290.276 137.923 290.401 138.047 290.495 138.171 290.585L160.586 305.332C160.183 308.145 161.082 311.145 163.244 313.307 166.891 316.984 172.859 316.984 176.536 313.307 180.213 309.66 180.213 303.693 176.536 300.015 174.344 297.819 171.373 296.955 168.531 297.327ZM124.785 261.557C122.932 263.41 119.931 263.41 118.077 261.557 116.224 259.703 116.224 256.702 118.077 254.849 119.931 252.995 122.932 252.995 124.785 254.849 126.639 256.702 126.639 259.703 124.785 261.557ZM173.231 310.002C171.377 311.856 168.377 311.856 166.523 310.002 164.669 308.149 164.669 305.148 166.523 303.294 168.377 301.441 171.377 301.441 173.231 303.294 175.085 305.148 175.085 308.145 173.231 310.002Z" fill="#EEEEEE" transform="matrix(1 0 0 1.00253 467.82 54.3161)"/><text fill="#EEEEEE" font-family="Arial,Arial_MSFontService,sans-serif" font-weight="700" font-size="5" transform="matrix(4.2808 0 0 4.29162 467.82 548)">Created by </text><text fill="#EEEEEE" font-family="Arial,Arial_MSFontService,sans-serif" font-weight="700" font-size="5" transform="matrix(4.2808 0 0 4.29162 587.682 548)">1</text><text fill="#EEEEEE" font-family="Arial,Arial_MSFontService,sans-serif" font-weight="700" font-size="5" transform="matrix(4.2808 0 0 4.29162 600.524 548)">art</text><text fill="#EEEEEE" font-family="Arial,Arial_MSFontService,sans-serif" font-weight="700" font-size="5" transform="matrix(4.2808 0 0 4.29162 467.82 569)">from the Noun Project</text></g></svg>