<svg width="292" height="291" xmlns="http://www.w3.org/2000/svg" xmlns:xlink="http://www.w3.org/1999/xlink" xml:space="preserve" overflow="hidden"><defs><clipPath id="clip0"><rect x="494" y="159" width="292" height="291"/></clipPath></defs><g clip-path="url(#clip0)" transform="translate(-494 -159)"><path d="M196.144 127.995C197.182 128.341 198.22 129.033 199.258 129.725 203.063 131.801 209.29 133.876 214.825 133.184 218.63 132.838 221.743 131.455 223.819 129.379 224.857 128.341 225.203 126.958 226.586 126.612 227.278 126.266 228.316 126.612 229.008 125.92 229.7 125.228 229.7 124.19 229.354 123.498 228.662 122.46 227.624 122.806 226.586 122.46 225.895 122.115 225.203 121.423 224.857 120.731 223.127 118.655 221.743 117.271 218.976 116.58 217.246 115.888 215.171 115.542 213.441 115.542 209.29 115.542 205.139 116.58 202.371 117.963 200.641 118.655 199.258 119.347 197.874 120.385 194.415 122.115 188.534 124.19 183.691 122.806 183.691 122.115 183.691 121.423 183.691 121.077 195.106 122.115 200.295 116.234 203.755 108.969 204.447 107.239 205.139 105.856 205.484 103.434 205.83 100.667 205.139 98.591 204.101 97.2073 202.717 95.1317 199.604 93.402 196.49 93.402 192.685 93.402 190.955 94.4398 188.88 96.1695 187.15 97.8992 186.112 99.2829 185.074 101.359 184.728 102.396 184.037 103.434 183.345 103.78 182.653 104.126 181.269 103.78 180.923 104.472 180.577 104.818 180.923 105.164 180.923 105.51 181.269 106.548 181.961 107.585 183.345 107.931 186.112 108.277 185.766 105.51 187.842 105.51 189.917 105.164 191.647 107.931 191.301 110.353 190.955 111.391 190.263 112.774 189.572 113.812 189.226 114.158 189.226 114.504 189.226 114.504 188.534 115.196 187.842 116.234 186.804 116.234 185.766 116.58 184.728 116.234 183.691 115.888 180.577 115.542 177.118 115.888 173.659 115.888 170.199 115.888 167.086 115.888 163.627 115.888 163.627 104.126 163.627 91.6724 163.627 79.9106 163.627 78.181 163.281 76.4513 163.627 74.7216 163.627 73.6838 164.318 72.992 164.318 71.9542 165.01 71.2623 165.356 70.5704 166.048 69.8786 166.74 69.1867 168.124 68.4948 169.161 68.1489 174.35 66.7652 178.156 70.2245 179.194 74.0298 179.194 74.0298 179.194 74.0298 179.194 74.0298 179.194 74.0298 179.194 74.0298 179.194 74.0298 178.502 69.1867 175.042 65.0355 170.199 63.9977 167.432 63.3058 163.281 63.6518 161.205 65.0355 160.167 60.8843 157.746 57.7709 154.632 55.6953 151.865 58.1168 149.443 61.2302 148.405 65.0355 146.676 63.9977 144.6 63.6518 142.525 63.6518 140.449 63.6518 138.373 64.3436 136.644 65.3814 134.222 66.7652 132.493 68.8408 131.455 71.2623 131.109 71.9542 130.417 72.992 130.763 74.0298 131.109 71.6082 132.493 69.8786 134.222 68.8408 136.298 67.457 139.065 67.457 141.141 68.1489 143.562 69.1867 145.984 71.6082 146.33 74.7216 146.33 76.4513 146.33 78.181 146.33 79.9106 146.33 91.6724 146.33 105.164 146.33 116.234 141.487 116.234 136.298 116.234 131.455 116.234 129.725 116.234 127.995 116.234 126.612 116.234 125.574 116.234 124.882 116.58 124.19 116.58 122.115 116.234 119.693 112.428 119.347 110.353 119.001 108.969 119.347 107.585 120.039 106.548 120.385 105.856 121.423 105.164 122.806 105.164 124.536 105.164 124.882 107.931 127.649 107.585 129.033 107.239 130.071 105.51 129.725 104.126 129.033 103.434 127.649 103.78 126.958 103.434 126.266 103.088 125.92 101.704 125.228 100.667 124.882 99.6288 124.19 98.591 123.498 97.8992 122.46 96.1695 120.731 94.7858 119.001 93.748 117.617 93.0561 114.85 92.3642 112.428 93.0561 112.082 93.0561 111.391 93.402 111.045 93.748 110.353 94.0939 110.007 94.0939 109.661 94.4398 107.239 95.4776 105.51 97.8992 105.164 100.667 104.818 104.126 105.856 106.548 106.893 109.315 110.353 116.234 115.542 122.115 126.612 120.731 126.612 121.423 126.612 121.769 126.612 122.46 121.077 123.498 116.234 122.115 112.428 120.039 111.045 119.347 109.661 118.309 107.931 117.617 106.202 116.926 104.818 116.58 102.742 115.888 98.937 115.196 94.7858 115.196 91.3264 116.234 88.9049 117.271 86.8293 118.655 85.4456 120.385 84.7537 121.077 84.4078 121.769 83.7159 122.115 83.024 122.46 81.6403 122.46 80.9484 123.152 80.6025 123.844 80.6025 124.882 80.9484 125.574 81.6403 126.266 82.6781 125.92 83.37 126.266 84.0618 126.612 84.7537 127.304 85.0996 127.995 86.8293 130.071 88.9049 131.455 91.6724 132.493 97.8992 134.568 105.164 132.838 109.315 130.417 113.812 127.995 119.001 124.882 126.266 126.612 126.266 127.304 126.266 127.995 126.266 128.341 115.196 126.958 109.315 133.53 106.202 140.449 105.856 141.487 105.164 142.525 104.818 143.908 104.126 147.714 105.164 151.173 107.239 153.249 108.277 154.286 110.699 155.67 112.428 155.67 114.504 156.016 116.926 155.67 118.655 154.632 120.385 153.594 122.115 151.865 123.152 150.481 123.498 149.789 124.19 148.751 124.882 147.714 125.228 146.676 125.92 145.638 126.612 144.946 127.304 144.6 128.687 144.946 129.033 144.254 129.379 143.562 128.687 142.871 128.341 142.179 127.995 141.487 127.304 140.795 126.266 140.795 123.844 140.795 123.844 143.216 121.769 143.216 119.347 143.216 117.963 140.449 118.655 138.027 119.347 135.952 121.423 132.838 122.806 132.147 123.844 131.801 124.882 132.147 125.92 132.147 129.033 132.493 132.493 132.147 135.952 132.147 139.411 132.147 142.871 132.147 145.984 132.147 145.638 139.757 145.984 190.263 145.984 198.22 145.984 200.295 145.984 202.371 145.984 204.101 145.292 209.636 143.908 214.133 142.179 218.284 145.984 231.775 149.789 245.959 153.594 259.796 153.94 260.834 153.94 261.526 154.286 262.564 157.4 251.494 160.167 240.424 163.281 229.354 163.972 226.586 164.664 223.819 165.356 221.051 165.702 220.014 166.048 218.976 166.048 218.284 166.048 217.938 165.702 217.246 165.356 216.554 163.627 212.403 162.589 207.906 161.897 202.717 161.897 200.295 161.897 197.874 161.897 195.452 161.897 188.188 161.897 139.411 161.897 131.801 167.086 131.801 171.929 131.801 177.118 131.801 178.848 131.801 180.577 131.801 182.307 131.801 182.999 131.801 183.345 131.455 184.037 131.455 186.112 131.455 187.15 132.838 188.188 134.222 189.226 135.952 190.609 138.373 189.572 140.795 189.226 141.833 187.842 142.871 186.458 142.871 184.383 142.871 184.383 140.103 181.961 140.449 180.577 140.449 179.539 142.179 179.539 143.908 180.231 144.6 181.615 144.254 182.307 144.6 183.345 144.946 183.345 146.33 184.037 147.368 185.074 149.443 186.112 151.173 187.842 152.557 189.572 154.286 192.685 155.67 196.49 155.324 197.528 155.324 198.566 154.632 199.604 154.286 203.063 152.557 205.139 148.405 204.101 143.216 203.755 141.487 202.717 139.411 201.679 137.682 198.22 131.801 192.339 126.612 182.653 127.995 182.653 127.304 182.653 126.612 182.653 126.266 188.88 125.574 193.031 126.612 196.144 127.995Z" fill="#E8E8E8" fill-rule="evenodd" transform="matrix(1.00128 0 0 1 483.958 148.896)"/><path d="M155.67 300.962C75.4135 300.962 10.378 235.927 10.378 155.67 10.378 75.4135 75.4135 10.378 155.67 10.378 235.927 10.378 300.962 75.4135 300.962 155.67 300.962 235.927 235.927 300.962 155.67 300.962ZM155.67 17.2967C79.2188 17.2967 17.2967 79.2188 17.2967 155.67 17.2967 232.121 79.2188 294.043 155.67 294.043 232.121 294.043 294.043 232.121 294.043 155.67 294.043 79.2188 232.121 17.2967 155.67 17.2967Z" fill="#E8E8E8" transform="matrix(1.00128 0 0 1 483.958 148.896)"/><text fill="#E8E8E8" font-family="Arial,Arial_MSFontService,sans-serif" font-weight="700" font-size="4.5" transform="matrix(3.46376 0 0 3.45933 483.958 515)">Created by Theo saputra</text><text fill="#E8E8E8" font-family="Arial,Arial_MSFontService,sans-serif" font-weight="700" font-size="4.5" transform="matrix(3.46376 0 0 3.45933 483.958 530)">from Noun Project</text></g></svg>