<svg xmlns="http://www.w3.org/2000/svg" xmlns:xlink="http://www.w3.org/1999/xlink" xml:space="preserve" overflow="hidden" viewBox="0 74.93 353.1 443.87"><defs><clipPath id="clip0"><rect x="468" y="55" width="428" height="382"/></clipPath></defs><g clip-path="url(#clip0)" transform="translate(-468 -55)"><path d="M207.918 188.106 188.102 207.922 98.2217 118.042C98.0505 117.914 97.9221 117.743 97.8365 117.572L75.1953 78.4096C74.6817 77.468 74.8529 76.3124 75.5805 75.5848 76.3081 74.8572 77.4637 74.686 78.4053 75.1996L117.61 97.8836C117.781 97.9692 117.91 98.0976 118.081 98.226L207.918 188.106ZM239.89 220.078 220.073 239.894 260.434 280.297 267.068 270.196C267.967 268.827 269.037 267.8 270.321 266.986L280.293 260.438 239.89 220.078ZM347.446 320.187C344.193 316.891 339.913 314.922 335.334 314.58L333.665 312.954C333.237 312.526 332.68 312.269 332.038 312.269L326.603 312.269 302.121 287.787 297.456 294.892 297.199 295.192C296.899 295.577 296.6 295.962 296.257 296.304 295.787 296.775 295.359 297.118 294.888 297.46L287.911 302.04 312.393 326.521 312.393 331.957C312.393 332.556 312.65 333.155 313.078 333.583L314.619 335.167C314.961 339.789 316.93 344.155 320.225 347.45 327.758 354.983 339.999 354.983 347.489 347.45 354.979 339.918 354.979 327.72 347.446 320.187ZM289.82 290.565C289.944 290.471 290.068 290.381 290.193 290.257 290.317 290.133 290.411 290.009 290.501 289.884L305.245 267.474C308.057 267.877 311.058 266.978 313.219 264.816 316.896 261.17 316.896 255.204 313.219 251.527 309.572 247.851 303.606 247.851 299.93 251.527 297.764 253.693 296.869 256.659 297.272 259.501L274.862 274.245C274.613 274.399 274.399 274.618 274.211 274.896L259.466 297.306C256.654 296.904 253.654 297.802 251.493 299.964 247.816 303.61 247.816 309.577 251.493 313.253 255.139 316.93 261.106 316.93 264.782 313.253 266.948 311.088 267.842 308.121 267.44 305.28L289.82 290.565ZM303.234 254.801C305.087 252.948 308.087 252.948 309.94 254.801 311.794 256.654 311.794 259.655 309.94 261.508 308.087 263.361 305.087 263.361 303.234 261.508 301.38 259.655 301.38 256.654 303.234 254.801ZM261.504 309.945C259.65 311.798 256.65 311.798 254.797 309.945 252.944 308.092 252.944 305.091 254.797 303.238 256.65 301.385 259.65 301.385 261.504 303.238 263.361 305.091 263.361 308.087 261.504 309.945ZM352.411 75.5848C351.683 74.8572 350.528 74.686 349.586 75.1996L310.424 97.8836C310.21 97.9692 310.082 98.0976 309.911 98.226L147.699 260.438 157.799 267.072C159.169 267.971 160.239 269.041 161.009 270.325L167.558 280.297 329.77 118.042C329.941 117.914 330.069 117.743 330.155 117.572L352.796 78.4096C353.31 77.5108 353.139 76.3124 352.411 75.5848ZM133.232 297.546 133.018 297.417C132.59 297.075 132.119 296.69 131.691 296.219 131.221 295.791 130.878 295.363 130.579 294.935L125.871 287.83 101.475 312.226 95.9961 312.226C95.3969 312.226 94.7977 312.483 94.3697 312.911L92.7433 314.537C88.1637 314.88 83.8837 316.848 80.5881 320.144 73.0981 327.677 73.0981 339.918 80.5881 347.408 88.1209 354.898 100.362 354.898 107.852 347.408 111.147 344.112 113.159 339.746 113.459 335.124L115.042 333.54C115.47 333.112 115.684 332.513 115.684 331.871L115.684 326.436 140.08 302.082 133.232 297.546ZM168.499 297.272 153.755 274.862C153.601 274.613 153.382 274.399 153.104 274.211L130.694 259.466C131.096 256.654 130.198 253.654 128.036 251.493 124.39 247.816 118.423 247.816 114.747 251.493 111.07 255.139 111.07 261.106 114.747 264.782 116.912 266.948 119.879 267.842 122.72 267.44L137.465 289.85C137.559 289.974 137.649 290.098 137.773 290.223 137.897 290.347 138.021 290.441 138.146 290.531L160.556 305.275C160.153 308.087 161.052 311.088 163.214 313.249 166.86 316.925 172.826 316.925 176.503 313.249 180.179 309.602 180.179 303.636 176.503 299.96 174.312 297.764 171.341 296.899 168.499 297.272ZM124.762 261.508C122.909 263.361 119.908 263.361 118.055 261.508 116.202 259.655 116.202 256.654 118.055 254.801 119.908 252.948 122.909 252.948 124.762 254.801 126.615 256.654 126.615 259.655 124.762 261.508ZM173.199 309.945C171.346 311.798 168.345 311.798 166.492 309.945 164.639 308.092 164.639 305.091 166.492 303.238 168.345 301.385 171.346 301.385 173.199 303.238 175.052 305.091 175.052 308.087 173.199 309.945Z" fill="#EEEEEE" transform="matrix(1 0 0 1.00035 468 55)"/><text fill="#EEEEEE" font-family="Arial,Arial_MSFontService,sans-serif" font-weight="700" font-size="5" transform="matrix(4.28 0 0 4.28149 468 547)">Created by </text><text fill="#EEEEEE" font-family="Arial,Arial_MSFontService,sans-serif" font-weight="700" font-size="5" transform="matrix(4.28 0 0 4.28149 587.84 547)">1</text><text fill="#EEEEEE" font-family="Arial,Arial_MSFontService,sans-serif" font-weight="700" font-size="5" transform="matrix(4.28 0 0 4.28149 600.68 547)">art</text><text fill="#EEEEEE" font-family="Arial,Arial_MSFontService,sans-serif" font-weight="700" font-size="5" transform="matrix(4.28 0 0 4.28149 468 569)">from the Noun Project</text></g></svg>