<svg width="414" height="382" xmlns="http://www.w3.org/2000/svg" xmlns:xlink="http://www.w3.org/1999/xlink" xml:space="preserve" overflow="hidden"><defs><clipPath id="clip0"><rect x="117" y="92" width="414" height="382"/></clipPath></defs><g clip-path="url(#clip0)" transform="translate(-117 -92)"><path d="M200.816 181.681 181.677 200.82 94.8668 114.01C94.7014 113.886 94.5774 113.721 94.4947 113.556L72.6269 75.7314C72.1308 74.8219 72.2962 73.7058 72.9989 73.003 73.7017 72.3003 74.8178 72.1349 75.7272 72.631L113.593 94.5402C113.758 94.6229 113.882 94.7469 114.048 94.8709L200.816 181.681ZM231.696 212.56 212.556 231.7 251.538 270.723 257.945 260.967C258.814 259.644 259.847 258.652 261.087 257.867L270.719 251.542 231.696 212.56ZM335.578 309.25C332.437 306.067 328.303 304.166 323.88 303.835L322.268 302.264C321.854 301.851 321.317 301.603 320.697 301.603L315.447 301.603 291.801 277.957 287.296 284.819 287.047 285.109C286.758 285.481 286.469 285.853 286.138 286.184 285.683 286.638 285.27 286.969 284.815 287.3L278.077 291.723 301.722 315.368 301.722 320.618C301.722 321.197 301.971 321.776 302.384 322.189L303.872 323.718C304.203 328.183 306.104 332.399 309.287 335.583 316.563 342.858 328.386 342.858 335.62 335.583 342.854 328.307 342.854 316.526 335.578 309.25ZM279.921 280.64C280.041 280.549 280.161 280.462 280.28 280.342 280.4 280.223 280.491 280.103 280.578 279.983L294.819 258.338C297.535 258.727 300.433 257.859 302.52 255.771 306.071 252.249 306.071 246.487 302.52 242.936 298.998 239.385 293.236 239.385 289.685 242.936 287.593 245.027 286.729 247.892 287.118 250.637L265.473 264.878C265.233 265.027 265.027 265.238 264.845 265.506L250.604 287.151C247.888 286.762 244.99 287.63 242.903 289.718 239.352 293.24 239.352 299.002 242.903 302.553 246.425 306.104 252.187 306.104 255.738 302.553 257.83 300.462 258.694 297.597 258.305 294.852L279.921 280.64ZM292.876 246.098C294.666 244.308 297.564 244.308 299.354 246.098 301.144 247.888 301.144 250.786 299.354 252.576 297.564 254.366 294.666 254.366 292.876 252.576 291.086 250.786 291.086 247.888 292.876 246.098ZM252.572 299.358C250.782 301.148 247.884 301.148 246.094 299.358 244.304 297.568 244.304 294.67 246.094 292.88 247.884 291.09 250.782 291.09 252.572 292.88 254.366 294.67 254.366 297.564 252.572 299.358ZM340.374 73.003C339.671 72.3003 338.555 72.1349 337.645 72.631L299.821 94.5402C299.614 94.6229 299.49 94.7469 299.325 94.8709L142.654 251.542 152.409 257.95C153.732 258.818 154.766 259.851 155.51 261.091L161.834 270.723 318.506 114.01C318.671 113.886 318.795 113.721 318.878 113.556L340.746 75.7314C341.242 74.8633 341.076 73.7058 340.374 73.003ZM128.681 287.382 128.475 287.258C128.061 286.928 127.607 286.556 127.193 286.101 126.738 285.687 126.408 285.274 126.118 284.861L121.571 277.999 98.0084 301.561 92.7172 301.561C92.1384 301.561 91.5597 301.809 91.1463 302.223L89.5755 303.794C85.1523 304.124 81.0185 306.026 77.8355 309.209 70.6013 316.484 70.6013 328.307 77.8355 335.541 85.111 342.775 96.9337 342.775 104.168 335.541 107.351 332.358 109.294 328.142 109.583 323.677L111.113 322.148C111.526 321.734 111.733 321.156 111.733 320.535L111.733 315.285 135.295 291.764 128.681 287.382ZM162.744 287.118 148.503 265.473C148.354 265.233 148.143 265.027 147.875 264.845L126.23 250.604C126.619 247.888 125.75 244.99 123.663 242.903 120.141 239.352 114.378 239.352 110.827 242.903 107.276 246.425 107.276 252.187 110.827 255.738 112.919 257.83 115.784 258.694 118.529 258.305L132.77 279.95C132.861 280.07 132.947 280.189 133.067 280.309 133.187 280.429 133.307 280.52 133.427 280.607L155.072 294.848C154.683 297.564 155.551 300.462 157.639 302.549 161.161 306.1 166.923 306.1 170.474 302.549 174.025 299.027 174.025 293.265 170.474 289.714 168.358 287.593 165.489 286.758 162.744 287.118ZM120.5 252.576C118.711 254.366 115.813 254.366 114.023 252.576 112.233 250.786 112.233 247.888 114.023 246.098 115.813 244.308 118.711 244.308 120.5 246.098 122.29 247.888 122.29 250.786 120.5 252.576ZM167.283 299.358C165.493 301.148 162.595 301.148 160.805 299.358 159.015 297.568 159.015 294.67 160.805 292.88 162.595 291.09 165.493 291.09 167.283 292.88 169.073 294.67 169.073 297.564 167.283 299.358Z" transform="matrix(1.0015 0 0 1 117 92)"/><text font-family="Arial,Arial_MSFontService,sans-serif" font-weight="700" font-size="5" transform="matrix(4.14 0 0 4.13381 117 567)">Created by </text><text font-family="Arial,Arial_MSFontService,sans-serif" font-weight="700" font-size="5" transform="matrix(4.14 0 0 4.13381 232.92 567)">1</text><text font-family="Arial,Arial_MSFontService,sans-serif" font-weight="700" font-size="5" transform="matrix(4.14 0 0 4.13381 245.34 567)">art</text><text font-family="Arial,Arial_MSFontService,sans-serif" font-weight="700" font-size="5" transform="matrix(4.14 0 0 4.13381 117 588)">from the Noun Project</text></g></svg>