<svg width="330" height="330" xmlns="http://www.w3.org/2000/svg" xmlns:xlink="http://www.w3.org/1999/xlink" xml:space="preserve" overflow="hidden"><defs><clipPath id="clip0"><rect x="411" y="608" width="330" height="330"/></clipPath><clipPath id="clip1"><rect x="447" y="643" width="256" height="261"/></clipPath><clipPath id="clip2"><rect x="447" y="643" width="256" height="261"/></clipPath></defs><g clip-path="url(#clip0)" transform="translate(-411 -608)"><g clip-path="url(#clip1)"><g clip-path="url(#clip2)"><g><path d="M225.035 157.593C217.9 193.205 184.901 224.766 126.933 251.439 72.76 226.437 40.1285 196.308 29.9427 161.863 26.7495 151.076 28.05 92.8993 28.8235 58.1627 29.036 48.9005 29.2202 40.596 29.3165 34.0793 71.7655 28.1463 104.491 17.901 126.758 3.5615 157.034 21.0057 190.676 31.8047 225.448 35.241 225.545 41.9305 225.783 50.4447 226.046 59.891 226.936 92.3185 228.29 141.321 225.035 157.587Z" fill="#E8E8E8" fill-rule="evenodd" transform="matrix(1 0 0 1.00162 448 643.71)"/><text fill="#E8E8E8" font-family="Arial,Arial_MSFontService,sans-serif" font-weight="700" font-size="5" transform="matrix(2.83333 0 0 2.83793 448 942)">Created by Andi wiyanto</text><text fill="#E8E8E8" font-family="Arial,Arial_MSFontService,sans-serif" font-weight="700" font-size="5" transform="matrix(2.83333 0 0 2.83793 448 956)">from the Noun Project</text></g></g></g></g></svg>