<svg width="296" height="253" xmlns="http://www.w3.org/2000/svg" xmlns:xlink="http://www.w3.org/1999/xlink" xml:space="preserve" overflow="hidden"><defs><clipPath id="clip0"><rect x="388" y="133" width="296" height="253"/></clipPath></defs><g clip-path="url(#clip0)" transform="translate(-388 -133)"><path d="M149.088 128.454C145.638 128.043 141.885 129.911 138.965 131.573 130.244 136.538 124.154 146.008 123.891 156.114L123.86 239.212C129.191 239.139 132.144 240.313 132.259 246.218 132.385 252.687 129.002 254.025 123.393 254.018L26.4565 253.993C23.467 253.984 20.5417 254.291 18.2824 251.926 15.5644 249.079 15.518 242.616 18.4921 239.902 20.5135 238.058 24.5185 238.698 27.1038 238.751 27.1824 238.041 27.0965 237.257 27.0822 236.541L27.0345 231.58C27.025 228.176 27.5618 224.233 31.2215 222.755L32.6995 222.191 32.7326 96.7834C32.7617 95.4606 33.0979 94.6941 32.0778 93.6742 28.7029 90.3003 26.3613 87.597 25.5972 82.8327 24.5418 76.2524 20.4066 79.753 18.2832 75.3916 16.9162 72.5842 18.6976 68.2876 21.5531 67.1233 25.0495 65.6982 32.4241 71.1904 35.7399 72.6507L35.9673 72.7467C37.4743 73.389 39.5249 72.882 41.1247 72.875L82.2568 72.7577C81.8365 72.5068 81.6672 72.2986 81.4064 71.8858L80.2479 70.3041C78.1839 67.4505 78.7858 63.91 81.7822 61.9739 84.0473 60.5107 85.991 61.5605 88.2173 62.4023 90.6241 63.3128 92.9782 63.4556 95.5306 63.4602 108.791 63.4834 119.282 60.2077 130.71 53.6137 133.406 52.0573 136.007 50.0422 138.834 48.7518L139.007 48.6747C139.073 42.9311 140.084 37.2757 146.877 36.4696 151.445 35.9664 155.629 38.985 156.499 43.5142L157.052 48.5754C157.759 49.4645 159.263 50.2152 160.233 50.7956L167.37 54.9034C177.049 60.3337 193.063 65.0807 204.363 63.314 206.623 62.9607 208.396 61.8588 210.541 61.279 213.328 60.5257 216.205 62.6052 216.851 65.3363 218.364 71.7332 208.565 72.7906 218.886 72.8369L254.782 72.8577C256.248 72.8583 258.132 73.0826 259.554 72.76L259.723 72.7183C263.921 71.7182 267.563 67.0776 272.514 66.9504 275.658 66.87 278.588 70.4226 278.488 73.4219 278.337 77.9192 272.101 78.0718 271.099 79.3124 270.53 80.0172 270.198 83.9548 269.958 85.0411 269.001 89.3741 263.562 93.0869 263.427 94.3281 263.286 95.6208 263.449 97.0673 263.462 98.3808L263.478 222.115C263.671 222.354 263.579 222.298 263.827 222.415 268.21 224.472 268.839 227.711 268.865 231.96L268.89 238.883C274.599 238.252 278.852 238.546 279.538 245.406 280.446 254.493 274.393 253.995 267.67 254.005L174.747 254.002C169.723 253.991 163.963 254.413 163.749 247.153 163.552 240.483 166.201 239.177 172.144 239.198L172.139 162.74C172.138 159.757 172.391 156.494 171.951 153.552 170.163 141.586 161.363 130.693 149.088 128.454ZM148.019 63.1255 141.785 67.062C125.886 76.919 112.678 80.9133 93.9882 81.5527L93.9084 222.543 108.177 222.532 108.129 163.309C108.129 157.61 107.934 152.113 109.245 146.515 112.608 132.148 123.279 119.229 137.346 114.349 137.656 114.242 139.27 113.922 139.417 113.753 139.983 113.103 137.753 100.286 147.731 100.137 154.705 100.361 156.33 105.965 156.514 111.649 156.534 112.269 156.482 113.069 156.656 113.661 159.423 114.919 162.193 115.853 164.878 117.339 177.142 124.124 186.46 138.002 187.688 152.086 187.932 154.881 187.79 157.778 187.79 160.585L187.769 222.555 202.002 222.485 201.996 81.3272C184.405 81.0665 172.109 77.7428 156.62 68.5478 153.753 66.8452 150.653 65.1727 148.019 63.1255ZM50.1323 93.4395C46.0402 94.7328 42.4651 99.2925 42.2967 103.627L42.2455 218.348C42.2452 219.684 42.1309 221.173 42.3091 222.492L50.4469 222.544 58.6526 222.511 58.5895 103.054C58.4444 100.16 52.639 92.8839 50.1323 93.4395ZM75.9651 93.5049C65.9485 98.0876 68.0517 107.206 68.0506 116.196L68.0217 222.549 76.5294 222.544C79.0696 222.54 81.7949 222.742 84.3115 222.474 84.5162 219.426 84.4057 216.324 84.4092 213.267L84.4034 107.453C84.4005 105.852 84.5173 104.099 84.2942 102.516 83.8976 99.6937 79.8039 93.6488 76.6669 93.4904L75.9651 93.5049ZM219.365 93.5043C209.525 98.1079 211.618 106.177 211.614 115.097L211.607 222.431 220.433 222.544 227.983 222.519 228.08 107.981C228.08 106.377 228.198 104.643 227.996 103.055 227.622 100.113 223.258 93.6592 219.961 93.4927L219.365 93.5043ZM245.813 93.5216C242.522 95.1161 239.223 98.1848 237.997 101.713L237.835 102.164C237.274 103.69 237.505 105.85 237.501 107.468L237.492 222.494C238.443 222.659 239.541 222.551 240.508 222.551L245.92 222.544 253.946 222.544 253.95 107.949C253.947 105.608 254.18 102.907 253.429 100.666 252.656 98.3605 248.936 93.2927 246.14 93.4944L245.813 93.5216Z" fill="#E8E8E8" transform="matrix(1 0 0 1.00077 388 109.586)"/><text fill="#E8E8E8" font-family="Arial,Arial_MSFontService,sans-serif" font-weight="700" font-size="5" transform="matrix(3.11579 0 0 3.1182 388 453)">Created by DJ Kirei</text><text fill="#E8E8E8" font-family="Arial,Arial_MSFontService,sans-serif" font-weight="700" font-size="5" transform="matrix(3.11579 0 0 3.1182 388 468)">from the Noun Project</text></g></svg>