<svg width="330" height="330" xmlns="http://www.w3.org/2000/svg" xmlns:xlink="http://www.w3.org/1999/xlink" xml:space="preserve" overflow="hidden"><defs><clipPath id="clip0"><rect x="877" y="530" width="330" height="330"/></clipPath><clipPath id="clip1"><rect x="896" y="550" width="291" height="291"/></clipPath><clipPath id="clip2"><rect x="896" y="550" width="291" height="291"/></clipPath></defs><g clip-path="url(#clip0)" transform="translate(-877 -530)"><g clip-path="url(#clip1)"><g clip-path="url(#clip2)"><g><path d="M74.5254 198.185C92.8312 214.319 112.333 229.021 132.885 242.168L138.976 245.936 144.991 242.212C165.577 229.063 185.111 214.342 203.426 198.184 243.654 162.375 264.053 129.454 264.053 100.335 264.053 80.6723 255.584 61.9526 240.807 48.9888 226.019 36.0138 206.366 30.0314 186.867 32.5939 167.367 35.1455 149.918 45.9813 138.975 62.3212 128.031 45.9805 110.582 35.1447 91.0837 32.5939 71.5835 30.0314 51.9309 36.0141 37.1437 48.9888 22.3665 61.9529 13.8975 80.6701 13.8975 100.335 13.8975 129.457 34.2988 162.375 74.5251 198.184Z" fill="#E8E8E8" transform="matrix(1.00001 0 0 1 903.021 567.146)"/><text fill="#E8E8E8" font-family="Arial,Arial_MSFontService,sans-serif" font-weight="700" font-size="5" transform="matrix(2.77957 0 0 2.77955 903.021 894)">Created by Kim Sun Young</text><text fill="#E8E8E8" font-family="Arial,Arial_MSFontService,sans-serif" font-weight="700" font-size="5" transform="matrix(2.77957 0 0 2.77955 903.021 908)">from Noun Project</text></g></g></g></g></svg>