<svg width="1344" height="1275" xmlns="http://www.w3.org/2000/svg" xmlns:xlink="http://www.w3.org/1999/xlink" xml:space="preserve" overflow="hidden"><defs><clipPath id="clip0"><rect x="1528" y="600" width="1344" height="1275"/></clipPath></defs><g clip-path="url(#clip0)" transform="translate(-1528 -600)"><path d="M83.1159 835.747C126.34 861.704 166.014 871.922 202.899 871.922 277.71 871.922 341.098 829.846 399.24 791.212 457.055 752.797 508.749 718.698 568.145 720.664 548.364 744.215 537.215 776.674 528.472 802.305 518.581 831.376 507.381 864.271 491.642 871.595 482.297 875.966 467.819 871.922 457.272 867.825 440.002 861.103 420.547 869.626 413.774 886.895 407.052 904.164 415.575 923.616 432.844 930.393 450.329 937.225 485.851 941.105 519.949 932.469 554.048 923.836 577.819 865.694 592.026 823.891 602.573 792.796 610.007 774.98 617.492 765.526 623.829 771.922 630.878 777.551 638.476 782.469 617.708 834.163 625.908 901.814 633.503 963.725 641.916 1032.31 650.663 1103.24 621.042 1136.56 605.196 1154.43 552.683 1161.37 532.737 1163.45 512.791 1165.53 499.24 1178.42 499.185 1196.89 499.13 1215.42 513.117 1229.63 532.627 1230.55 552.134 1231.54 641.7 1214.38 671.262 1181.1 720.99 1125.09 710.392 1038.86 700.116 955.467 692.576 894.153 685.417 835.682 703.178 801.906 703.776 801.906 733.067 799.391 745.965 794.803 751.975 812.124 756.02 834.802 759.515 854.694 768.643 906.769 807.769 981.142 840.72 988.139 873.671 995.133 905.037 981.963 933.946 966.278 950.229 957.426 956.295 937.043 947.442 920.76 938.589 904.474 918.261 898.408 901.924 907.261 874.217 922.289 857.769 924.475 851.594 921.468 838.369 915.076 831.046 873.437 825.692 843.054 820.447 813.271 814.708 781.084 801.814 754.58 813.069 740.212 821.265 723.269 825.255 704.8 844.872 722.722 920.121 752.941 961.433 754.199 1002.69 755.457 1053.73 733.38 1093.02 714.797 1166.85 679.826 1211.44 658.732 1271.66 738.844 1282.81 753.652 1303.85 756.656 1318.66 745.511 1333.46 734.362 1336.47 713.323 1325.32 698.515 1232.21 574.633 1139.1 618.733 1064.29 654.14 1024.67 672.884 987.235 690.59 950.676 686.493 897.068 680.482 853.133 639.115 846.958 634.744 877.943 610.643 895.865 573.376 911.44 540.751 926.032 510.151 941.167 478.565 964.938 456.543 985.867 437.198 1053.08 403.976 1053.08 403.976 1069.69 395.776 1076.52 375.613 1068.33 359 1060.13 342.389 1039.97 335.558 1023.35 343.755 1023.35 343.755 947.452 381.242 919.365 407.199 886.084 437.913 867.395 477.146 850.838 511.739 830.018 555.347 816.138 581.355 789.799 589.772 778.926 579.39 766.193 570.973 752.147 565.128 760.017 532.668 774.554 499.061 788.871 466.272 818.162 399.113 848.487 329.605 818.268 267.751 796.195 222.559 745.099 190.318 662.093 169.115 644.171 164.525 625.864 175.345 621.272 193.324 616.681 211.303 627.503 229.553 645.48 234.144 707.395 249.937 745.208 271.194 757.941 297.205 774.554 331.195 751.604 383.765 727.341 439.394 711.385 475.95 693.899 516.114 684.991 557.481 658.106 561.907 634.17 575.022 616.138 593.93 589.634 588.466 578.159 567.265 560.454 529.723 537.94 482.015 507.227 416.66 410.124 420.977 391.6 421.798 377.228 437.483 378.101 456.007 378.923 474.53 394.494 488.796 413.128 488.03 463.183 485.789 476.572 509.285 499.742 558.302 515.863 592.511 536.411 635.627 582.531 653.769 496.298 645.954 425.809 692.786 362.2 734.971 269.193 796.721 207.66 831.805 117.765 777.87 101.863 768.361 81.2612 773.496 71.698 789.4 62.0805 805.518 67.2173 826.176 83.119 835.74Z" fill="#EEEEEE" transform="matrix(1.00114 0 0 1 1493.9 551.227)"/><text fill="#EEEEEE" font-family="Arial,Arial_MSFontService,sans-serif" font-weight="700" font-size="5" transform="matrix(14.0052 0 0 13.9893 1493.9 2195)">Created by Amanda Hua</text><text fill="#EEEEEE" font-family="Arial,Arial_MSFontService,sans-serif" font-weight="700" font-size="5" transform="matrix(14.0052 0 0 13.9893 1493.9 2263)">from Noun Project</text><path d="M2035 1237C2035 1145.87 2108.87 1072 2200 1072 2291.13 1072 2365 1145.87 2365 1237 2365 1328.13 2291.13 1402 2200 1402 2108.87 1402 2035 1328.13 2035 1237Z" stroke="#EEEEEE" stroke-width="27.5" stroke-miterlimit="8" fill="none" fill-rule="evenodd"/><path d="M1932.67 1054.03C2034 906.385 2235.83 868.841 2383.47 970.17 2531.11 1071.5 2568.66 1273.33 2467.33 1420.97 2366 1568.61 2164.17 1606.16 2016.53 1504.83 1868.88 1403.5 1831.34 1201.67 1932.67 1054.03Z" stroke="#EEEEEE" stroke-width="58.4375" stroke-linecap="round" stroke-miterlimit="8" stroke-dasharray="409.062 233.75 0 233.75" fill="none" fill-rule="evenodd"/></g></svg>