<svg width="439" height="467" xmlns="http://www.w3.org/2000/svg" xmlns:xlink="http://www.w3.org/1999/xlink" xml:space="preserve" overflow="hidden"><defs><clipPath id="clip0"><rect x="421" y="62" width="439" height="467"/></clipPath></defs><g clip-path="url(#clip0)" transform="translate(-421 -62)"><path d="M467.636 135.264C452.183 121.76 414.358 85.2846 395.366 37.1546 394.996 36.2188 394.548 35.316 394.027 34.4557 389.878 27.5786 379.263 31.5169 380.582 39.4536 387.209 79.1172 405.082 149.198 451.653 193.92 456.142 198.283 463.319 198.18 467.682 193.69 469.564 191.753 470.693 189.208 470.865 186.513 471.734 172.259 472.634 159.604 473.514 150.008 474.029 144.436 471.843 138.954 467.636 135.264Z" fill="#EEEEEE" transform="matrix(1.00178 0 0 1 383.619 40.1403)"/><path d="M103.477 211.053C103.311 209.216 101.688 207.862 99.8516 208.028 98.3992 208.159 97.2001 209.218 96.8898 210.643 90.3525 241.63 75.8985 283.612 43.8118 313.46 36.772 319.914 36.2972 330.853 42.7512 337.893 42.8274 337.976 42.9044 338.058 42.9822 338.14 46.7606 342.068 51.3187 346.756 56.6065 352.074 61.8108 357.37 70.323 357.444 75.6191 352.24 76.5477 351.328 77.3388 350.285 77.9677 349.145 104.117 301.255 107.206 250.506 103.477 211.053Z" fill="#EEEEEE" transform="matrix(1.00178 0 0 1 383.619 40.1403)"/><path d="M455.861 223.907C420.426 198.048 392.777 156.785 375.065 102.887 367.546 79.7838 362.1 56.0565 358.791 31.9867 358.3 28.3733 355.211 25.6812 351.564 25.6894L231.024 25.6894C225.619 25.6884 220.493 28.0868 217.03 32.2366 202.836 49.2296 163.322 96.58 126.538 140.192 118.921 149.226 115.897 161.268 118.341 172.828 121.711 188.863 123.87 205.129 124.798 221.488 127.857 276.655 115.742 327.174 89.5729 369.487 86.2453 374.908 87.1894 381.922 91.8319 386.27 122.009 414.638 161.423 449.314 205.865 482.57 209.034 484.933 212.908 486.158 216.86 486.049 237.951 485.459 309.382 482.9 365.568 474.483 372.035 473.505 377.425 469.019 379.563 462.838 387.329 440.457 410.26 384.87 457.22 345.387 461.312 341.988 463.774 337.017 463.998 331.702 464.577 316.619 465.887 283.373 467.546 248.217 467.968 238.668 463.581 229.542 455.861 223.907ZM278.884 103.027C279.01 102.376 279.205 101.739 279.464 101.128 279.71 100.516 280.022 99.9332 280.394 99.3888 280.758 98.8263 281.18 98.3036 281.653 97.8294 282.128 97.3645 282.643 96.943 283.193 96.57 283.746 96.2016 284.336 95.8901 284.952 95.6404 285.564 95.3853 286.201 95.1912 286.851 95.0606 288.171 94.798 289.53 94.798 290.849 95.0606 291.504 95.1869 292.144 95.3812 292.759 95.6404 293.372 95.8903 293.958 96.2017 294.508 96.57 295.06 96.9404 295.575 97.3621 296.047 97.8294 296.524 98.3034 296.949 98.826 297.317 99.3888 297.681 99.9377 297.992 100.52 298.246 101.128 298.501 101.741 298.696 102.377 298.826 103.027 299.498 106.362 298.455 109.811 296.047 112.213 295.58 112.687 295.064 113.109 294.508 113.473 293.953 113.837 293.368 114.151 292.759 114.413 292.142 114.664 291.503 114.855 290.849 114.982 289.53 115.252 288.17 115.252 286.851 114.982 286.202 114.851 285.566 114.66 284.952 114.413 284.339 114.151 283.75 113.837 283.193 113.473 282.638 113.106 282.122 112.684 281.653 112.213 279.745 110.303 278.668 107.717 278.654 105.016 278.662 104.347 278.739 103.681 278.884 103.027ZM182.664 354.033C182.524 354.681 182.331 355.317 182.085 355.932 181.823 356.54 181.512 357.125 181.155 357.682 180.784 358.242 180.355 358.761 179.875 359.231 179.402 359.7 178.886 360.125 178.336 360.501 177.78 360.865 177.191 361.176 176.577 361.43 175.965 361.688 175.329 361.882 174.678 362.01 171.349 362.682 167.906 361.638 165.511 359.231 165.032 358.766 164.61 358.246 164.252 357.682 163.877 357.132 163.559 356.546 163.302 355.932 163.052 355.318 162.858 354.683 162.723 354.033 162.467 352.713 162.467 351.355 162.723 350.035 162.855 349.385 163.049 348.749 163.302 348.136 163.559 347.519 163.877 346.93 164.252 346.376 164.612 345.817 165.035 345.301 165.511 344.837 167.917 342.449 171.35 341.408 174.678 342.058 175.329 342.189 175.966 342.387 176.577 342.648 177.195 342.894 177.785 343.205 178.336 343.578 178.909 343.947 179.442 344.376 179.925 344.857 182.321 347.263 183.366 350.701 182.714 354.033ZM247.198 403.073C244.799 405.48 241.353 406.524 238.021 405.852 237.372 405.723 236.736 405.532 236.122 405.282 235.509 405.021 234.921 404.706 234.363 404.342 233.808 403.972 233.293 403.547 232.824 403.073 232.347 402.606 231.921 402.09 231.554 401.534 231.186 400.981 230.872 400.396 230.614 399.784 230.36 399.168 230.166 398.529 230.035 397.875 229.906 397.217 229.842 396.547 229.845 395.876 229.844 395.205 229.907 394.535 230.035 393.877 230.17 393.227 230.364 392.592 230.614 391.977 230.872 391.369 231.186 390.787 231.554 390.238 231.921 389.675 232.346 389.152 232.824 388.679 233.293 388.208 233.809 387.786 234.363 387.419 234.914 387.047 235.504 386.736 236.122 386.49 236.734 386.232 237.37 386.038 238.021 385.91 241.349 385.264 244.782 386.3 247.198 388.679 247.669 389.158 248.094 389.68 248.467 390.238 248.824 390.792 249.135 391.373 249.397 391.977 249.643 392.593 249.837 393.229 249.976 393.877 250.104 394.535 250.167 395.205 250.166 395.876 250.167 398.573 249.099 401.16 247.198 403.073ZM356.062 336.63C342.538 346.946 321.567 361.09 298.086 370.306 290.969 373.095 282.92 372.055 276.745 367.548 257.503 353.553 213.402 321.717 188.092 306.063 181.791 302.161 178.948 294.474 181.195 287.411 188.572 264.141 206.524 212.102 233.043 164.752 236.358 158.868 243.377 156.157 249.786 158.284 267.629 164.172 304.634 177.656 341.748 198.938 348.703 202.966 352.774 210.589 352.254 218.609L349.075 268.109C348.156 282.383 338.08 294.668 324.086 297.637 322.896 297.887 321.667 298.076 320.397 298.216 307.025 299.483 294.272 292.31 288.41 280.224 284.412 272.077 282.723 261.332 291.069 250.036 291.814 249.055 292.696 248.187 293.688 247.457 296.175 245.616 298.309 243.341 299.986 240.74 303.507 235.215 301.893 227.883 296.377 224.347 291.058 220.969 285.432 218.101 279.574 215.781 274.385 213.714 268.456 215.168 264.81 219.399 255.525 230.094 247.347 241.702 240.4 254.045 233.971 265.83 234.853 280.255 242.669 291.169 253.072 305.571 265.452 318.436 279.444 329.383 284.509 333.352 290.899 335.237 297.307 334.651 309.592 333.572 331.593 331.333 352.134 327.714 354.845 327.194 357.464 328.969 357.985 331.68 358.346 333.562 357.6 335.485 356.062 336.63Z" fill="#EEEEEE" transform="matrix(1.00178 0 0 1 383.619 40.1403)"/><text fill="#EEEEEE" font-family="Arial,Arial_MSFontService,sans-serif" font-weight="700" font-size="5" transform="matrix(1.00137 0 0 0.999586 383.619 567)">Created by Maxicons</text><text fill="#EEEEEE" font-family="Arial,Arial_MSFontService,sans-serif" font-weight="700" font-size="5" transform="matrix(1.00137 0 0 0.999586 383.619 572)">from the Noun Project</text></g></svg>