<svg width="389" height="390" xmlns="http://www.w3.org/2000/svg" xmlns:xlink="http://www.w3.org/1999/xlink" xml:space="preserve" overflow="hidden"><defs><clipPath id="clip0"><rect x="417" y="110" width="389" height="390"/></clipPath><clipPath id="clip1"><rect x="419" y="110" width="387" height="390"/></clipPath></defs><g clip-path="url(#clip0)" transform="translate(-417 -110)"><g clip-path="url(#clip1)"><g><path d="M160.532 285.943C122.531 323.944 64.8659 349.245 12.8161 333.774 11.708 333.447 10.9124 332.624 10.6283 331.487 10.3442 330.365 10.6425 329.257 11.4665 328.433L18.5128 321.386C43.0328 325.478 66.6021 323.262 88.5066 315.718 111.407 307.833 132.446 294.139 150.859 275.742L268.117 158.485 275.533 165.901C276.925 167.293 276.925 169.552 275.533 170.944ZM306.629 33.2694C317.27 22.6289 334.53 22.6289 345.172 33.2694 355.812 43.9099 355.812 61.1705 345.172 71.8122 338.992 77.9918 330.582 80.5776 322.527 79.5829 318.052 79.0289 313.932 80.6626 311.077 84.1573 295.081 103.606 276.755 121.122 257.507 137.785L229.819 110.097ZM24.792 315.121C46.2575 317.906 66.9134 315.618 86.2066 308.97 108.042 301.455 128.172 288.342 145.817 270.7L263.075 153.442 224.776 115.143Z" fill="#EEEEEE" fill-rule="evenodd" transform="matrix(1 0 0 1 437.392 127.834)"/><text fill="#EEEEEE" font-family="Arial,Arial_MSFontService,sans-serif" font-weight="700" font-size="5" transform="matrix(3.63681 0 0 3.6368 437.392 555)">Created by Radhika Studio</text><text fill="#EEEEEE" font-family="Arial,Arial_MSFontService,sans-serif" font-weight="700" font-size="5" transform="matrix(3.63681 0 0 3.6368 437.392 573)">from Noun Project</text></g></g></g></svg>