<svg width="348" height="394" xmlns="http://www.w3.org/2000/svg" xmlns:xlink="http://www.w3.org/1999/xlink" xml:space="preserve" overflow="hidden"><defs><clipPath id="clip0"><rect x="466" y="135" width="348" height="394"/></clipPath></defs><g clip-path="url(#clip0)" transform="translate(-466 -135)"><path d="M247.874 27.2208C245.217 27.2752 242.608 27.4588 240.062 27.7526 219.705 30.1033 204.091 39.3402 190.433 47.2251 176.774 55.1101 165.061 61.6521 151.273 63.2441 137.484 64.836 120.38 62.0131 94.763 47.2251 88.2599 43.4626 79.9377 45.6839 76.1749 52.1865 73.7397 56.3947 73.7359 61.5826 76.1649 65.7944L108.526 121.927 285.866 121.927 318.278 65.8209C322.037 59.316 319.81 50.9959 313.305 47.2374 313.297 47.2333 313.29 47.2292 313.283 47.2251 287.892 32.5678 266.472 26.8464 247.874 27.2215ZM375.664 126.203C373.913 125.983 372.103 126.095 370.298 126.602L286.211 149.129 270.163 149.129 124.201 149.129 107.17 149.129C99.6572 149.13 93.5674 155.219 93.5674 162.731 93.5674 170.243 99.6572 176.332 107.17 176.332L107.306 176.332C101.243 182.193 95.522 188.495 90.3029 195.22 63.8523 229.306 47.6074 272.893 47.6074 314.552 47.6074 356.211 67.2297 383.432 95.722 395.55 124.214 407.669 159.442 408.062 197.237 408.062 235.032 408.062 270.26 407.668 298.752 395.55 327.244 383.432 346.867 356.211 346.867 314.552 346.867 272.893 330.622 229.306 304.174 195.22 301.916 192.313 299.526 189.528 297.105 186.773L370.353 206.404C377.573 208.445 385.063 204.242 387.144 196.947 389.221 189.652 384.83 182.011 377.394 180.131L326.515 166.503 377.394 152.875C384.83 150.996 389.221 143.355 387.144 136.059 385.582 130.588 380.974 126.863 375.719 126.203Z" fill="#EEEEEE" transform="matrix(1 0 0 1.00332 421.833 112.307)"/><text fill="#EEEEEE" font-family="Arial,Arial_MSFontService,sans-serif" font-weight="700" font-size="5" transform="matrix(13.6021 0 0 13.6472 421.833 754)">Created by Ranah Pixel Studio</text><text fill="#EEEEEE" font-family="Arial,Arial_MSFontService,sans-serif" font-weight="700" font-size="5" transform="matrix(13.6021 0 0 13.6472 421.833 822)">from the Noun Project</text></g></svg>