<svg width="297" height="347" xmlns="http://www.w3.org/2000/svg" xmlns:xlink="http://www.w3.org/1999/xlink" xml:space="preserve" overflow="hidden"><defs><clipPath id="clip0"><rect x="362" y="195" width="297" height="347"/></clipPath></defs><g clip-path="url(#clip0)" transform="translate(-362 -195)"><path d="M184.414 173.511 203.253 170.204 198.962 200.866ZM147.289 175.576 177.761 170.191 168.773 153.281ZM187.288 134.076 171.985 149.933 182.349 169.353 204.171 165.723 207.221 143.901ZM183.105 132.039 155.251 118.476 169.799 145.79ZM212.201 108.435 190.42 130.919 207.626 139.313ZM259.477 57.1937 288.573 223.132 288.573 223.145C274.362 227.612 264.875 240.986 265.334 255.871L155.319 275.143C150.595 261.094 137.154 251.85 122.336 252.457L93.24 86.5191C107.451 82.0386 116.951 68.6782 116.52 53.7928L226.344 34.5081C231.068 48.5702 244.509 57.8145 259.327 57.2072ZM253.215 161.363 211.837 141.174 218.234 95.5324 186.236 128.704 144.806 108.474 166.628 149.162 134.631 182.293 179.975 174.29 201.797 214.977 208.234 169.336ZM208.479 164.75 238.991 159.366 211.177 145.803ZM269.546 12.6836 313.446 261.62 309.816 266.599 304.04 267.612 304.026 267.625C294.377 270.189 286.077 276.37 280.855 284.899L283.365 298.206 280.787 301.836 275.848 302.713 85.4707 336.249C83.0146 336.721 80.4775 336.195 78.426 334.778 76.3746 333.361 74.9847 331.175 74.5529 328.719L32.0415 87.0307C33.0401 66.3827 47.453 48.824 67.4947 43.818L70.6931 61.9961 73.9994 42.7249 243.772 12.7247 248.792 24.1014 249.588 11.6993 264.393 9.09473ZM280.018 271.874 140.019 296.57 123.406 299.485 109.438 276.826 113.77 301.185 113.757 301.185C100.72 304.6 90.4772 314.68 86.8469 327.663L267.737 295.733C268.034 294.1 268.533 292.683 268.938 291.185L224.82 294.559 270.527 286.516C271 285.315 271.472 284.154 272.012 282.886L255.277 281.793 274.562 278.486C276.182 276.125 278.004 273.911 280.014 271.873ZM263.877 54.9497C263.688 53.7756 263.041 52.7365 262.083 52.0482 261.111 51.3599 259.91 51.1035 258.749 51.306 246.252 53.5192 234.309 45.2196 232.015 32.7229 231.826 31.5623 231.178 30.5232 230.206 29.8484 229.248 29.1602 228.061 28.8903 226.887 29.0927L113.946 48.9443C112.771 49.1468 111.746 49.7945 111.058 50.7527 110.369 51.7109 110.099 52.912 110.302 54.0726 111.368 60.0915 110.005 66.2995 106.496 71.3062 102.987 76.3264 97.6296 79.7408 91.6106 80.8069 90.45 80.9958 89.3974 81.6436 88.7091 82.6018 88.0344 83.5735 87.7644 84.761 87.9804 85.9351L117.792 254.561C117.98 255.735 118.628 256.774 119.6 257.462 120.558 258.137 121.759 258.407 122.92 258.204 135.47 256.005 147.441 264.385 149.654 276.923 150.072 279.352 152.38 280.985 154.809 280.566L267.726 260.634 267.74 260.634C268.9 260.445 269.939 259.784 270.614 258.826 271.303 257.867 271.572 256.666 271.37 255.506 270.304 249.487 271.68 243.279 275.176 238.272 278.685 233.252 284.042 229.837 290.061 228.785 292.477 228.353 294.096 226.072 293.705 223.656Z" fill="#EEEEEE" transform="matrix(1 0 0 1.003 335.632 194.038)"/><text fill="#EEEEEE" font-family="Arial,Arial_MSFontService,sans-serif" font-weight="700" font-size="5" transform="matrix(3.45481 0 0 3.46519 335.632 601)">Created by Hamstring</text><text fill="#EEEEEE" font-family="Arial,Arial_MSFontService,sans-serif" font-weight="700" font-size="5" transform="matrix(3.45481 0 0 3.46519 335.632 619)">from Noun Project</text></g></svg>