<svg width="490" height="256" xmlns="http://www.w3.org/2000/svg" xmlns:xlink="http://www.w3.org/1999/xlink" xml:space="preserve" overflow="hidden"><defs><clipPath id="clip0"><rect x="424" y="137" width="490" height="256"/></clipPath></defs><g clip-path="url(#clip0)" transform="translate(-424 -137)"><path d="M169.955 272.338 169.955 334.461C169.955 340.207 167.662 345.823 163.674 349.853L126.674 387.325C124.616 389.405 125.43 391.87 125.731 392.599 126.138 393.564 127.124 395.171 129.311 395.171L364.967 395.171C367.283 395.171 368.269 393.414 368.633 392.385 368.912 391.634 369.619 388.998 367.304 387.068L312.233 341.278C307.259 337.162 304.429 331.031 304.429 324.471L304.429 311.48C304.429 299.54 313.905 289.85 325.545 289.85L372.278 289.85C374.465 289.85 376.244 287.835 376.244 285.37L376.244 158.138C376.244 155.651 374.465 153.657 372.278 153.657L38.2669 153.636C36.0803 153.636 34.301 155.651 34.301 158.116L34.301 183.283C34.301 185.449 35.7159 187.271 37.7525 187.742 106.867 203.435 151.671 244.723 163.761 257.027 167.769 261.1 169.977 266.546 169.977 272.355Z" fill="#EEEEEE" transform="matrix(1.00111 0 0 1 395.158 -1.28025)"/><path d="M393.418 270.066C463.241 252.68 506.047 210.879 513.982 200.095 514.368 199.581 514.518 199.152 514.518 198.594L514.518 163.652 393.444 163.909 393.444 270.067Z" fill="#EEEEEE" transform="matrix(1.00111 0 0 1 395.158 -1.28025)"/><text fill="#EEEEEE" font-family="Arial,Arial_MSFontService,sans-serif" font-weight="700" font-size="5" transform="matrix(5.49401 0 0 5.48792 395.158 644)">Created by blue</text><text fill="#EEEEEE" font-family="Arial,Arial_MSFontService,sans-serif" font-weight="700" font-size="5" transform="matrix(5.49401 0 0 5.48792 395.158 671)">from Noun Project</text></g></svg>