<svg width="293" height="256" xmlns="http://www.w3.org/2000/svg" xmlns:xlink="http://www.w3.org/1999/xlink" xml:space="preserve" overflow="hidden"><defs><clipPath id="clip0"><rect x="560" y="331" width="293" height="256"/></clipPath></defs><g clip-path="url(#clip0)" transform="translate(-560 -331)"><path d="M214.756 146.94C193.505 146.94 176.214 164.231 176.214 185.491 176.214 206.751 193.505 224.033 214.756 224.033 236.006 224.033 253.297 206.751 253.297 185.491 253.297 164.231 236.006 146.94 214.756 146.94Z" fill="#EEEEEE" transform="matrix(1 0 0 1.00031 550.596 310.267)"/><path d="M214.756 118.473C177.8 118.473 147.738 148.535 147.738 185.491 147.738 222.447 177.8 252.509 214.756 252.509 251.712 252.509 281.774 222.447 281.774 185.491 281.774 148.535 251.712 118.473 214.756 118.473ZM214.756 230.195C190.096 230.195 170.042 210.141 170.042 185.482 170.042 160.822 190.106 140.759 214.756 140.759 239.406 140.759 259.469 160.822 259.469 185.482 259.469 210.141 239.415 230.195 214.756 230.195Z" fill="#EEEEEE" transform="matrix(1 0 0 1.00031 550.596 310.267)"/><path d="M41.1622 77.254 41.1622 60.7416C41.1622 55.5667 45.3782 51.3507 50.5531 51.3507L166.577 51.3507C171.751 51.3507 175.967 55.5667 175.967 60.7416L175.967 77.2445C175.967 82.4194 171.751 86.6354 166.577 86.6354L147.491 86.6354 50.5531 86.6354C45.3782 86.6449 41.1622 82.4289 41.1622 77.254Z" fill="#EEEEEE" transform="matrix(1 0 0 1.00031 550.596 310.267)"/><path d="M22.0766 118.711 22.0766 102.208C22.0766 97.0328 26.2926 92.8168 31.4675 92.8168L50.5531 92.8168 147.491 92.8168C152.666 92.8168 156.882 97.0328 156.882 102.208L156.882 118.711C156.882 123.886 152.675 128.101 147.491 128.101L31.4675 128.101C26.2926 128.101 22.0766 123.895 22.0766 118.711Z" fill="#EEEEEE" transform="matrix(1 0 0 1.00031 550.596 310.267)"/><path d="M41.1622 160.186 41.1622 143.664C41.1622 138.508 45.3592 134.321 50.5151 134.321L162.522 134.321C153.15 143.892 146.399 156.018 143.37 169.539L50.5151 169.539C45.3592 169.53 41.1622 165.342 41.1622 160.186Z" fill="#EEEEEE" transform="matrix(1 0 0 1.00031 550.596 310.267)"/><path d="M22.0766 201.681 22.0766 185.159C22.0766 179.946 26.2736 175.711 31.4295 175.711L50.5151 175.711 142.297 175.711C141.87 178.92 141.566 182.158 141.566 185.482 141.566 194.474 143.275 203.058 146.257 211.024L50.5151 211.024 31.4295 211.024C26.2736 211.034 22.0766 206.837 22.0766 201.681Z" fill="#EEEEEE" transform="matrix(1 0 0 1.00031 550.596 310.267)"/><path d="M166.548 252.528 50.5151 252.528C45.3592 252.528 41.1622 248.293 41.1622 243.08L41.1622 226.559C41.1622 221.403 45.3592 217.206 50.5151 217.206L147.462 217.206 148.906 217.206C154.764 229.322 163.832 239.596 175.056 246.879 173.584 250.202 170.337 252.528 166.548 252.528Z" fill="#EEEEEE" transform="matrix(1 0 0 1.00031 550.596 310.267)"/><text fill="#EEEEEE" font-family="Arial,Arial_MSFontService,sans-serif" font-weight="700" font-size="5" transform="matrix(9.49533 0 0 9.49823 550.596 757)">Created by Fabien</text><text fill="#EEEEEE" font-family="Arial,Arial_MSFontService,sans-serif" font-weight="700" font-size="5" transform="matrix(9.49533 0 0 9.49823 550.596 804)">from the Noun Project</text></g></svg>