<svg width="403" height="400" xmlns="http://www.w3.org/2000/svg" xmlns:xlink="http://www.w3.org/1999/xlink" xml:space="preserve" overflow="hidden"><defs><clipPath id="clip0"><rect x="427" y="111" width="403" height="400"/></clipPath></defs><g clip-path="url(#clip0)" transform="translate(-427 -111)"><path d="M108.363 107.792 179.115 71.0562 179.115 296.297C118.478 274.801 95.8517 232.168 92.5325 225.255ZM187.245 71.0562 187.245 296.297C247.882 274.801 270.508 232.168 273.828 225.255L257.985 107.777ZM298.901 235.176C297.814 237.781 271.152 299.418 184.427 327.324 184.027 327.453 183.597 327.524 183.182 327.524 182.767 327.524 182.338 327.453 181.937 327.324 95.2264 299.417 68.5661 237.781 67.4634 235.176 67.1915 234.504 67.0913 233.774 67.1915 233.058L86.4113 90.5207C86.583 89.204 87.3987 88.0592 88.5722 87.4581L181.306 39.2996C182.48 38.6842 183.882 38.6842 185.056 39.2996L277.804 87.4581C278.978 88.0735 279.779 89.2184 279.965 90.5207L299.185 233.058C299.271 233.788 299.171 234.518 298.899 235.176ZM282.057 225.359 265.785 104.616C265.614 103.3 264.798 102.155 263.625 101.554L185.058 60.7517C185.015 60.7231 184.958 60.7374 184.915 60.7231 184.385 60.4655 183.798 60.2938 183.169 60.2938 182.539 60.2938 181.967 60.4655 181.423 60.7231 181.38 60.7374 181.323 60.7374 181.28 60.7517L102.739 101.539C101.565 102.154 100.764 103.299 100.578 104.602L84.306 225.344C84.2059 226.06 84.306 226.789 84.578 227.462 85.5082 229.68 108.205 282.146 181.935 305.871 182.336 306.014 182.765 306.072 183.18 306.072 183.596 306.072 184.025 306 184.426 305.871 258.156 282.143 280.838 229.679 281.783 227.462 282.055 226.804 282.155 226.074 282.055 225.358Z" fill="#EEEEEE" transform="matrix(1 0 0 1.00042 445.318 135.782)"/><text fill="#EEEEEE" font-family="Arial,Arial_MSFontService,sans-serif" font-weight="700" font-size="5" transform="matrix(3.66364 0 0 3.66517 445.318 566)">Created by iconcheese</text><text fill="#EEEEEE" font-family="Arial,Arial_MSFontService,sans-serif" font-weight="700" font-size="5" transform="matrix(3.66364 0 0 3.66517 445.318 585)">from Noun Project</text></g></svg>