<svg width="385" height="473" xmlns="http://www.w3.org/2000/svg" xmlns:xlink="http://www.w3.org/1999/xlink" xml:space="preserve" overflow="hidden"><defs><clipPath id="clip0"><rect x="460" y="54" width="385" height="473"/></clipPath></defs><g clip-path="url(#clip0)" transform="translate(-460 -54)"><path d="M393.225 345.179C381.327 263.985 293.834 249.288 286.131 232.487 278.432 215.69 285.431 72.198 285.431 72.198 298.728 71.4982 299.264 36.5767 288.93 30.9011 281.937 27.0596 230.137 20.3981 209.136 32.3009 200.038 37.8998 197.938 71.4982 215.434 73.5978 217.534 191.89 221.033 227.588 211.235 235.986 201.437 244.384 124.442 267.485 116.744 357.777 109.045 448.069 190.24 487.966 264.435 485.167 338.63 482.367 405.122 426.373 393.225 345.179ZM279.765 37.6597C278.682 44.6991 223.649 44.2087 222.898 38.2012 221.815 29.5321 280.848 30.6151 279.765 37.6597ZM230.862 257.206C254.238 242.525 243.24 136.131 241.62 104.938 241.217 97.1631 239.781 86.5682 243.02 82.4405 249.728 73.8889 263.469 78.5172 263.684 89.3829 264.445 127.865 267.383 227.399 277.635 247.337 290.411 272.179 320.93 260.823 347.902 298.437 292.429 269.227 213.519 296.45 173.77 299.29 180.758 287.919 209.636 270.54 230.862 257.206ZM181.489 315.78C215.664 311.882 275.801 291.418 321.343 303.837 346.165 310.605 363.56 327.959 354.293 326.835 335.918 324.618 297.333 351.391 238.607 343.867 219.48 341.42 164.508 317.716 181.489 315.78ZM359.642 410.977C334.799 453.561 265.574 468.784 208.793 441.816 152.013 414.844 146.69 361.179 156.273 353.808 165.499 346.712 173.08 356.387 211.527 365.475 250.56 374.701 308.158 367.294 338.681 355.938 369.194 344.577 384.484 368.387 359.642 410.977Z" fill="#EEEEEE" transform="matrix(1 0 0 1.00115 402.407 40.2552)"/><text fill="#EEEEEE" font-family="Arial,Arial_MSFontService,sans-serif" font-weight="700" font-size="5" transform="matrix(5.10847 0 0 5.11434 402.407 628)">Created by Anna Pasechnaia</text><text fill="#EEEEEE" font-family="Arial,Arial_MSFontService,sans-serif" font-weight="700" font-size="5" transform="matrix(5.10847 0 0 5.11434 402.407 654)">from the Noun Project</text></g></svg>