<svg width="312" height="341" xmlns="http://www.w3.org/2000/svg" xmlns:xlink="http://www.w3.org/1999/xlink" xml:space="preserve" overflow="hidden"><defs><clipPath id="clip0"><rect x="352" y="133" width="312" height="341"/></clipPath><clipPath id="clip1"><path d="M426.719 71.8289 742.891 217.408 597.91 531.151 281.739 385.572Z" fill-rule="evenodd" clip-rule="evenodd"/></clipPath><clipPath id="clip2"><path d="M426.719 71.8289 742.891 217.408 597.91 531.151 281.739 385.572Z" fill-rule="evenodd" clip-rule="evenodd"/></clipPath><clipPath id="clip3"><path d="M426.719 71.8289 742.891 217.408 559.78 613.668 243.607 468.088Z" fill-rule="evenodd" clip-rule="evenodd"/></clipPath></defs><g clip-path="url(#clip0)" transform="translate(-352 -133)"><g clip-path="url(#clip1)"><g clip-path="url(#clip2)"><g clip-path="url(#clip3)"><path d="M159.942 68.3029 159.942 199.982 187.73 199.982 187.73 68.3029C187.73 53.1413 180.701 41.3375 173.836 33.4223 166.97 41.3375 159.942 53.1413 159.942 68.3029Z" fill="#EEEEEE" transform="matrix(0.909398 0.418726 -0.419478 0.907766 426.314 72.7055)"/><path d="M199.444 288.632C199.444 287.775 199.116 286.975 198.515 286.379L185.897 273.752C185.172 273.028 184.765 272.047 184.765 271.021L184.765 222.356 162.907 222.356 162.907 246.742 173.836 246.742C175.972 246.742 177.699 248.47 177.699 250.605 177.699 252.74 175.972 254.468 173.836 254.468L162.907 254.468 162.907 267.158 173.836 267.158C175.972 267.158 177.699 268.886 177.699 271.021 177.699 273.156 175.972 274.884 173.836 274.884L160.643 274.884 149.156 286.375C148.557 286.975 148.228 287.775 148.228 288.632 148.228 289.492 148.557 290.291 149.156 290.887L171.576 313.315C172.821 314.56 174.851 314.563 176.096 313.311L198.515 290.891C199.115 290.291 199.444 289.492 199.444 288.632Z" fill="#EEEEEE" transform="matrix(0.909398 0.418726 -0.419478 0.907766 426.314 72.7055)"/><path d="M123.484 210.59 123.484 211.744C123.484 213.336 124.779 214.63 126.371 214.63L221.301 214.63C222.894 214.63 224.187 213.336 224.187 211.744L224.187 210.59C224.187 209.028 222.867 207.708 221.301 207.708L126.371 207.708C124.805 207.708 123.484 209.028 123.484 210.59Z" fill="#EEEEEE" transform="matrix(0.909398 0.418726 -0.419478 0.907766 426.314 72.7055)"/><text fill="#EEEEEE" font-family="Arial,Arial_MSFontService,sans-serif" font-weight="700" font-size="5" transform="matrix(3.51302 1.61755 -1.62045 3.50673 256.166 441)">Created by iconcheese</text><text fill="#EEEEEE" font-family="Arial,Arial_MSFontService,sans-serif" font-weight="700" font-size="5" transform="matrix(3.51302 1.61755 -1.62045 3.50673 248.064 458)">from the Noun Project</text></g></g></g></g></svg>