<svg width="502" height="501" xmlns="http://www.w3.org/2000/svg" xmlns:xlink="http://www.w3.org/1999/xlink" xml:space="preserve" overflow="hidden"><defs><clipPath id="clip0"><rect x="389" y="108" width="502" height="501"/></clipPath><clipPath id="clip1"><path d="M518.991 67.0398 932.287 236.126 761.023 653.09 347.727 484.005Z" fill-rule="evenodd" clip-rule="evenodd"/></clipPath><clipPath id="clip2"><path d="M518.991 67.0398 932.287 236.126 761.023 653.09 347.727 484.005Z" fill-rule="evenodd" clip-rule="evenodd"/></clipPath><clipPath id="clip3"><path d="M518.991 67.0398 932.287 236.126 720.512 751.719 307.216 582.633Z" fill-rule="evenodd" clip-rule="evenodd"/></clipPath></defs><g clip-path="url(#clip0)" transform="translate(-389 -108)"><g clip-path="url(#clip1)"><g clip-path="url(#clip2)"><g clip-path="url(#clip3)"><path d="M246.18 247.11C245.252 296.346 251.754 384.599 283.341 418.043 297.275 432.907 315.855 441.267 332.577 442.196 332.577 442.196 332.577 442.196 332.577 442.196 339.079 442.196 347.44 441.267 353.943 434.765 353.943 434.765 353.943 434.765 353.943 434.765 364.162 424.546 363.233 402.25 351.156 381.812 346.511 373.451 347.44 362.304 354.872 354.872 362.304 347.44 372.523 346.511 381.812 351.156 402.25 363.233 424.546 364.162 434.765 353.943 448.7 340.008 441.267 307.494 418.043 282.411 394.819 259.187 310.281 248.039 246.18 247.11Z" fill="#EEEEEE" transform="matrix(0.926855 0.37919 -0.379939 0.925012 518.991 67.0398)"/><path d="M417.114 162.572C431.978 148.637 440.339 130.058 441.267 113.336 441.267 106.834 440.339 98.4723 433.835 91.9694 423.617 81.7506 401.321 82.6795 380.884 94.7564 372.523 99.4013 361.375 98.4723 353.943 91.0405 346.511 83.6086 345.582 73.3898 350.227 64.0999 362.304 43.6622 363.233 21.3666 353.014 11.1478 339.079-2.78695 306.565 4.64492 281.482 27.8695 258.258 49.2362 247.11 134.702 246.18 198.803 296.346 200.66 384.599 195.087 417.114 162.572Z" fill="#EEEEEE" transform="matrix(0.926855 0.37919 -0.379939 0.925012 518.991 67.0398)"/><path d="M113.336 4.64492C107.762 4.64492 98.4723 5.57391 91.9694 12.0768 81.7506 22.2956 82.6795 44.5913 94.7564 65.0288 99.4013 73.3898 98.4723 84.5376 91.0405 91.9694 83.6086 99.4013 73.3898 100.33 64.0999 95.6853 53.8811 88.2535 42.7333 84.5376 32.5144 84.5376 24.1536 84.5376 16.7217 87.3245 12.0768 91.9694-1.85797 105.904 5.57391 138.419 28.7985 163.501 50.1651 186.726 135.632 197.874 199.731 198.803 200.66 149.567 194.157 61.3129 162.572 27.8695 148.637 13.9348 130.058 4.64492 113.336 4.64492Z" fill="#EEEEEE" transform="matrix(0.926855 0.37919 -0.379939 0.925012 518.991 67.0398)"/><path d="M28.7985 283.341C13.9348 297.275 4.64492 315.855 4.64492 332.577 4.64492 339.079 5.57391 347.44 12.0768 353.943 22.2956 364.162 44.5913 363.233 65.0288 351.156 68.7448 349.298 72.4608 348.369 76.1767 348.369 81.7506 348.369 87.3245 350.227 91.9694 354.872 99.4013 362.304 100.33 372.523 95.6853 381.812 83.6086 402.25 82.6795 424.546 92.8984 434.765 106.834 448.7 139.348 441.267 164.43 418.043 187.655 396.676 198.803 311.209 199.731 247.11 149.567 245.252 61.3129 250.826 28.7985 283.341Z" fill="#EEEEEE" transform="matrix(0.926855 0.37919 -0.379939 0.925012 518.991 67.0398)"/><text fill="#EEEEEE" font-family="Arial,Arial_MSFontService,sans-serif" font-weight="700" font-size="5" transform="matrix(8.61034 3.52262 -3.52958 8.59321 296.627 608)">Created by Vectors Market</text><text fill="#EEEEEE" font-family="Arial,Arial_MSFontService,sans-serif" font-weight="700" font-size="5" transform="matrix(8.61034 3.52262 -3.52958 8.59321 278.98 651)">from the Noun Project</text></g></g></g></g></svg>