<svg width="276" height="458" xmlns="http://www.w3.org/2000/svg" xmlns:xlink="http://www.w3.org/1999/xlink" xml:space="preserve" overflow="hidden"><defs><clipPath id="clip0"><rect x="523" y="39" width="276" height="458"/></clipPath></defs><g clip-path="url(#clip0)" transform="translate(-523 -39)"><path d="M378.059 39.2714C377.012 35.1638 375.027 31.6724 371.359 29.3007 366.807 26.3667 361.663 25.3545 356.46 25.3056 347.032 25.2078 337.575 25.7262 328.2 24.8264 320.196 24.0636 312.147 22.8117 304.191 23.3203 297.971 23.7164 291.775 23.9364 285.57 23.7164 278.665 23.467 271.844 23.0611 264.866 23.6724 252.636 24.7335 240.259 24.3619 228.005 23.4523 219.521 22.8215 210.988 22.2787 202.553 22.1222 184.885 21.8191 167.159 21.1443 149.477 22.8362 141.917 23.5599 134.269 22.2836 126.704 23.6381 120.489 24.7482 115.575 27.4866 112.606 33.3301 109.599 39.2616 109.814 45.8044 109.462 52.044 108.88 62.4352 109.765 72.89 109.971 83.3154 110.509 111.081 110.421 138.861 110.425 166.641 110.445 176.049 110.998 185.433 111.208 194.826 112.078 235.584 110.978 276.342 112.142 317.105 113.276 356.924 111.726 396.782 113.677 436.601 113.966 443.364 113.428 450.132 114.528 456.91 115.594 463.575 123.408 469.051 129.775 466.729 131.599 466.059 133.345 466.044 135.154 466.02 186.284 465.496 237.418 466.768 288.553 465.227 305.13 464.724 321.721 464.435 338.357 465.667 348.005 466.381 357.868 467.335 367.599 464.973 371.164 464.108 376.812 457.046 375.604 453.506 374.729 450.934 375.095 448.455 374.958 445.927 374.68 441.144 375.932 436.474 375.834 431.687 375.682 423.066 375.746 414.44 375.746 405.814 375.746 390.65 375.687 375.496 375.799 360.342 375.985 334.372 375.511 308.391 376.822 282.435 377.271 273.54 376.572 264.645 376.729 255.736 377.413 216.636 376.215 177.511 377.79 138.411 378.064 131.692 377.946 124.929 377.193 118.225 376.875 115.418 377.839 112.778 377.927 110.034 378.386 96.3912 377.716 82.7579 378.885 69.0905 379.731 59.2518 380.562 49.1394 378.059 39.2714ZM373.487 67.423C372.22 85.4083 373.487 103.418 372.567 121.384 370.738 156.606 372.303 191.858 371.697 227.086 371.594 233.672 372.279 240.391 371.756 246.851 369.579 273.076 371.174 299.325 370.587 325.545 370.274 339.687 370.875 353.858 370.156 367.971 369.017 390.367 369.883 412.758 369.496 435.144 369.384 441.115 369.408 447.081 369.403 453.051 369.379 457.839 366.147 461.335 361.311 461.271 349.291 461.105 337.281 460.753 325.276 460.333 311.056 459.839 296.797 460.22 282.562 460.225 266.391 460.23 250.215 459.839 234.059 460.357 208.068 461.193 182.068 461.13 156.073 461.428 151.355 461.482 146.567 461.668 141.883 461.736 135.995 461.819 129.976 461.736 124.054 461.174 121.13 460.895 119.814 458.729 119.682 456.015 119.482 451.795 119.462 447.57 119.452 443.345 119.428 407.604 120.132 371.853 119.174 336.142 118.337 305.389 119.081 274.645 118.235 243.922 117.364 212.279 117.301 180.645 117.267 149.002 117.267 147.702 117.267 146.46 115.917 145.526 117.242 144.572 117.281 143.35 117.267 142.039 117.125 109.521 116.998 77.0073 116.856 44.4841 116.841 40.9976 116.768 37.599 119.291 34.6601 121.844 31.6822 124.543 29.7457 128.802 29.7702 168.122 29.9364 207.447 29.9804 246.768 29.9756 256.308 29.9756 265.883 29.8142 275.374 30.3276 284.362 30.8117 293.306 30.934 302.289 30.9633 305.218 30.9731 308.02 29.7995 311.007 30.1614 323.614 31.6968 336.298 30.5281 348.934 31.0807 354.352 31.3105 359.804 31.9413 365.081 33.379 365.579 33.5159 366.064 33.8631 366.445 34.2298 369.663 37.291 372.171 40.5281 372.949 45.3154 374.137 52.7139 374 60.0929 373.487 67.423Z" fill="#EEEEEE" fill-rule="evenodd" transform="matrix(1 0 0 1.00184 415.367 23.5192)"/><path d="M359.873 287.178C360.015 284.215 358.655 282.91 356.235 282.269 347.721 280.02 339.174 277.976 330.308 277.614 319.051 277.159 307.697 277.579 296.714 274.352 286.753 271.428 278.093 266.587 272.518 257.418 268.606 250.988 268.171 244.088 274.421 238.572 274.885 238.166 275.496 237.814 275.491 237.056 275.242 237.301 274.993 237.54 274.758 237.785 269.736 232.484 264.719 227.178 259.614 221.785 256.592 224.773 255.051 228.455 254.597 232.704 254.23 236.083 253.672 239.433 253.242 242.807 251.55 256.367 249.878 269.932 248.215 283.496 247.311 290.777 247.13 298.147 245.726 305.379 245.443 306.729 245.511 308.352 243.741 308.914 242.494 308.039 242.689 306.738 242.567 305.614 241.418 295.139 240.352 284.65 239.198 274.181 237.741 260.958 236.235 247.751 234.729 234.533 234.171 229.482 231.795 225.384 227.853 221.535 215.203 234.269 202.499 246.729 188.504 257.858 198.318 242.826 211.609 230.645 222.396 216.293 217.423 208.401 215.32 206.954 208.743 205.511 203.521 204.362 199.227 204.509 194.65 208.43 186.044 215.814 174.665 218.078 164.601 222.831 159.037 225.462 153.169 227.712 148.846 232.391 140.166 241.829 138.606 253.922 145.663 265.188 149.804 271.804 154.866 277.804 159.878 283.834 168.083 293.721 170.523 310.049 158.592 321.531 155.839 324.181 154.553 327.521 153.76 331.213 152.944 334.978 153.384 338.694 153.516 342.445 153.667 346.704 153.408 350.831 151.037 354.645 147.526 360.298 142.792 364.416 136.621 366.875 134.45 367.746 132.24 368.577 130.631 369.208 130.631 379.653 130.631 389.614 130.631 399.868 133.707 399.408 135.98 400.807 138.45 400.792 146.421 400.743 154.396 400.416 162.372 400.166 189.79 399.291 217.242 399.736 244.68 399.086 281.208 398.22 317.77 398.714 354.323 398.699 356.89 398.699 357.844 398.039 357.809 395.281 357.667 383.526 357.57 371.77 358.142 360.02 358.469 353.359 358.205 346.67 358.205 339.824 356.812 339.438 355.482 339.115 354.186 338.719 348.993 337.115 343.795 335.433 339.804 331.545 334.029 325.936 336.186 317.237 343.809 314.939 347.672 313.775 351.482 312.494 355.046 310.562 358.323 308.797 360.45 306.582 360.073 302.323 359.609 297.306 359.609 292.215 359.873 287.178ZM166.812 244.372C166.866 242.421 168.244 241.956 169.848 242.029 171.34 242.098 172.88 242.289 172.758 244.43 172.65 246.465 171.359 247.022 169.599 247.066 167.932 246.944 166.768 246.22 166.812 244.372ZM170.587 354.342C168.587 353.609 168.181 352 168.567 350.108 168.983 348.093 169.565 345.897 172.064 345.853 175.418 345.785 176.337 348.328 176.782 351.149 175.423 353.946 173.614 355.457 170.587 354.342ZM177.457 333.115C175.961 333.086 175.115 332.245 175.232 330.66 175.335 329.257 176.103 328.533 177.501 328.44 178.89 328.621 179.667 329.526 179.638 330.817 179.599 332.064 178.905 333.149 177.457 333.115ZM213.1 299.526C209.687 303.213 208.244 307.623 207.922 312.499 207.844 313.726 208.196 315.149 205.878 315.545 204.386 307.619 203.516 299.423 193.687 296.538 199.746 293.682 204.083 289.614 206.215 283.042 208.963 288.934 212.494 293.707 219.037 295.702 216.949 297.531 214.645 297.858 213.1 299.526ZM280.866 338.22C279.697 338.587 278.724 338.137 278.191 336.851 278.67 334.611 280.054 334.244 282.196 335.095 282.259 336.504 282.303 337.775 280.866 338.22ZM281.017 283.315C279.638 283.345 278.733 282.807 278.733 281.281 278.729 279.78 279.413 278.792 280.978 278.851 282.303 278.895 283.105 279.741 283.311 281.081 283.076 282.367 282.445 283.281 281.017 283.315ZM303.076 324.347C299.311 320.856 301.13 314.694 295.491 313.09 299.423 311.521 300.621 307.932 302.484 304.093 304.156 307.961 305.452 311.311 309.858 312.944 304.484 315.134 304.396 319.716 303.076 324.347ZM319.159 294.944C318.533 296.064 317.374 295.966 316.289 295.521 315.594 293.178 315.594 293.178 317.834 291.927 319.105 292.724 319.873 293.672 319.159 294.944ZM341.619 361.795C336.064 364.112 335.927 368.729 335.247 372.758 333.623 373.188 333.061 372.43 333.007 371.443 332.792 367.355 332.156 363.555 326.743 361.976 331.301 360.098 332.054 356.122 334.225 352.611 336.474 356.039 337.051 360.024 341.619 361.795Z" fill="#EEEEEE" fill-rule="evenodd" transform="matrix(1 0 0 1.00184 415.367 23.5192)"/><path d="M358.367 47.6577C341.946 47.8386 325.56 46.7971 309.144 46.6748 302.45 46.6259 295.819 45.4768 289.11 46.0244 283.164 46.5134 277.169 46.7677 271.227 46.2347 266.983 45.8631 263.139 46.5966 259.315 48.3227 254.313 50.5721 249.936 53.7066 245.819 57.2567 240.337 61.9707 234.685 66.3814 227.027 66.7579 223.633 66.9242 220.235 66.9291 216.841 67.0073 213.046 67.0905 209.702 65.8191 206.479 63.8778 201.139 60.6553 196.919 56.1858 192.435 51.9755 187.237 47.1002 181.237 43.7653 173.795 43.7213 165.105 43.6626 156.396 42.8166 147.687 43.6528 146.328 43.7848 144.919 43.7311 143.57 43.5452 138.89 42.9046 134.274 42.9487 128.919 44.8606 129.408 78.2396 127.584 111.839 129.462 145.408 133.594 146.597 137.394 146.469 141.071 147.149 154.034 149.545 166.465 153.467 178.533 158.846 187.042 162.636 194.137 167.907 199.34 175.428 201.648 178.778 203.971 182.411 205.081 186.567 203.79 187.306 203.002 187.262 202.787 185.804 202.352 182.856 200.489 180.875 198.274 179.164 189.169 172.161 178.567 168.269 167.712 165.193 159.183 162.768 150.455 160.87 141.531 160.328 137.824 160.108 134.122 159.428 130.22 159.687 129.848 226.166 129.57 292.391 130.176 359.081 135.951 354.112 140.416 348.807 142.729 341.907 143.423 339.824 143.374 337.79 142.616 335.726 141.267 332.064 141.183 328.445 142.768 324.773 144.685 320.337 147.076 316.293 150.66 312.983 152.469 311.301 154.235 309.54 155.868 307.687 161.697 301.081 162.421 294.636 158.059 286.993 156.196 283.731 154.093 280.582 151.844 277.584 146.758 270.817 141.79 264.093 140.161 255.443 138.489 246.572 139.912 238.372 146.103 231.868 151.604 226.073 158.743 222.24 166.181 219.213 175.79 215.315 185.408 211.433 194.166 205.79 194.934 205.296 196.103 205.076 196.191 203.55 195.11 203.379 194.049 203.193 192.978 203.037 183.061 201.623 173.007 201.888 163.061 200.914 160.973 200.709 158.753 200.861 156.91 199.012 157.589 198.665 157.976 198.337 158.386 198.284 163.208 197.658 168.024 196.993 172.856 196.489 184.352 195.301 195.863 194.225 207.364 193.032 209.457 192.817 211.609 192.577 213.565 191.868 219.565 189.702 220.68 184.621 216.489 179.946 207.545 169.956 198.655 159.912 189.77 149.868 189.032 149.027 187.995 148.249 188.313 146.328 201.501 156.435 213.579 167.462 226.822 177.345 230.518 172.778 233.467 168.499 234.196 162.973 236.156 147.941 239.1 133.095 242.474 118.328 242.733 117.169 242.699 115.751 244.044 115.144 245.306 115.721 245.34 116.831 245.55 117.775 246.509 122.064 247.535 126.352 248.303 130.68 250.386 142.328 252.073 154.039 254.719 165.584 255.765 170.112 258.093 173.746 261.267 177.756 273.579 167.633 285.623 157.731 297.672 147.824 292.543 146.499 288.758 143.76 284.87 141.188 278.401 136.9 281.306 125.951 286.509 123.731 291.76 121.477 297.051 119.741 302.944 119.79 314.597 119.878 326.269 119.677 337.868 118.24 342.103 117.711 345.907 116.489 348.191 112.509 347.619 111.423 346.939 110.577 345.946 110.015 336.895 104.836 338.108 95.7213 344.616 89.7359 346.924 87.6137 349.711 86.1516 352.381 84.533 361.423 79.0562 361.33 79.0416 361.643 68.4939 361.814 62.1858 361.237 55.8533 362.225 49.3643 361.178 48.1271 359.961 47.643 358.367 47.6577ZM165.628 92.6259C164.841 95.4817 165.677 98.7531 163.198 101.672 161.007 95.7359 160.587 88.8851 152.895 86.9095 155.325 84.6259 158.313 84.3619 159.677 81.7995 160.836 79.6332 160.719 76.8068 163.535 74.5037 164.455 80.3912 167.34 84.3325 172.709 86.5183 169.345 87.9315 166.606 89.0416 165.628 92.6259ZM174.611 182.655C171.619 182.9 169.873 181.447 169.619 178.509 169.403 176.015 170.641 175.086 175.78 174.743 176.954 174.836 177.457 176.91 177.844 178.548 178.396 180.914 176.954 182.46 174.611 182.655ZM186.533 107.555C185.98 106.313 186.108 105.359 187.599 105.174 188.538 105.071 189.267 105.609 189.056 106.631 188.734 108.137 187.682 108.02 186.533 107.555ZM217.565 118.416C215.164 116.254 217.076 112 213.174 111.012 214.856 109.237 216.191 107.814 217.638 106.289 219.389 107.477 220.078 109.35 221.687 110.968 218.186 112.479 219.134 115.897 217.565 118.416ZM283.174 116C281.487 115.99 280.421 115.144 280.469 113.276 280.509 111.599 281.55 111.1 283.071 111.032 284.504 111.252 285.658 111.834 285.604 113.604 285.555 115.139 284.641 116.015 283.174 116ZM329.472 89.7506C327.57 89.7359 326.518 88.7775 326.606 86.8998 326.709 84.9144 327.643 83.2372 329.785 83.0807 332.01 82.9144 331.941 84.8166 332.083 86.4156 331.863 87.9902 331.848 89.7702 329.472 89.7506Z" fill="#EEEEEE" fill-rule="evenodd" transform="matrix(1 0 0 1.00184 415.367 23.5192)"/><path d="M351.335 167.98C354.543 165.452 356.044 162.078 354.572 157.99 353.369 154.641 352.093 151.296 350.577 148.083 346.645 139.804 347.667 134.87 354.729 129.002 359.046 125.413 361.667 121.027 361.193 115.154 361.012 112.866 361.1 110.567 361.012 108.269 360.817 103.54 360.587 98.802 360.357 93.7946 354.235 94.9927 348.919 97.1883 344.386 101.159 342.352 102.944 342.235 104.601 344.274 106.401 345.086 107.115 346.093 107.623 347.042 108.152 350.592 110.083 351.11 113.785 348.117 116.499 346.337 118.108 344.323 119.32 341.917 119.936 337.257 121.13 332.46 121.032 327.721 121.526 318.117 122.528 308.445 121.741 298.822 122.616 293.394 123.11 288.689 125.002 284.807 128.836 282.249 131.359 282.078 134.127 284.445 136.88 287.335 140.264 291.183 142.264 295.325 143.56 302.24 145.736 309.325 147.399 316.186 149.707 323.169 152.059 328.895 156.166 332 163.232 334.117 168.024 333.178 172.66 329.447 176.298 326.176 179.496 322.171 181.066 317.878 182.303 312.597 183.829 307.188 185.325 304.337 190.812 304.254 190.958 303.868 190.944 303.359 191.071 303.345 187.301 305.33 184.988 308.205 183.311 311.472 181.399 315.037 180.191 318.714 179.296 321.883 178.523 324.87 177.32 327.237 175.032 329.712 172.631 332.132 169.814 331.09 166.166 330.083 162.67 327.941 159.658 324.958 157.257 318.2 151.819 310.132 149.858 301.956 148.068 300.817 147.819 299.912 148 299.027 148.998 289.051 160.274 279.389 171.829 269.046 182.787 267.746 184.156 267.878 185.286 268.9 186.895 271.922 191.658 276.548 192.861 281.658 193.188 292.924 193.907 304.186 194.562 315.447 195.33 320.45 195.672 325.491 195.804 330.362 196.724 330.65 197.863 330.425 198.587 329.853 199.213 328.328 199.501 326.856 199.785 324.875 200.161 329.941 203.545 334.973 205.619 340.215 207.301 347.672 209.687 353.922 213.809 358.416 220.362 358.895 221.061 359.252 221.985 360.68 222.377 360.68 220.782 360.729 219.345 360.67 217.917 359.878 199.741 360.117 181.555 360.078 163.374 360.059 158.24 361.037 152.802 357.017 148.435 356.797 148.2 356.807 147.741 356.714 147.389 355.575 142.954 357.086 138.978 359.262 135.345 360.983 132.46 361.257 129.531 360.787 126.171 358.513 129.364 355.237 131.487 352.675 134.313 350.073 137.169 349.12 140.694 350.601 144.259 351.966 147.565 352.934 150.993 354.323 154.279 357.482 161.751 356.504 166.421 350.318 171.565 343.604 177.144 336.748 182.538 328.562 185.917 326.083 186.934 323.775 188.244 322.098 190.455 321.35 191.447 320.425 191.76 319.232 191.042 319.335 189.423 321.13 188.513 320.528 187.027 325.482 184.43 330.22 182.024 334.895 179.467 340.763 176.22 346.068 172.127 351.335 167.98ZM299.829 169.907C298.817 169.751 297.736 169.306 297.795 168.073 297.897 166 298.548 164.02 300.631 163.144 303.609 161.883 303.677 165.169 305.271 166.254 304.088 168.802 302.548 170.318 299.829 169.907ZM315.056 191.257C315.677 189.746 316.499 189.154 318.298 188.592 317.232 189.951 316.699 190.91 315.056 191.257Z" fill="#EEEEEE" fill-rule="evenodd" transform="matrix(1 0 0 1.00184 415.367 23.5192)"/><path d="M357.496 236.709C349.741 233.105 341.594 230.582 333.487 227.961 329.257 226.597 325.276 224.719 322.059 221.57 316.279 215.927 311.017 209.966 311.002 201.046 308.802 201.208 306.949 201.418 305.066 202.073 305.883 205.355 306.704 208.44 307.418 211.555 309.149 219.105 304.851 227.721 297.927 230.406 294.861 231.604 291.658 232.44 288.616 233.682 286.548 234.528 285.315 234.024 284.289 231.917 287.795 230.753 291.203 229.501 294.68 228.499 299.868 226.993 303.716 224.249 305.11 218.68 306.606 212.714 303.584 207.721 302.284 202.274 295.976 202.919 290.068 203.932 284.137 204.039 275.462 204.191 269.575 208.235 265.555 215.912 269.883 222.24 275.223 228.059 280.469 233.917 286.782 240.954 293.002 248.064 298.846 255.501 299.355 256.156 300.24 256.846 299.174 258.112 291.638 252.293 285.095 245.379 278.005 239.271 273.829 241.203 271.443 245.134 271.755 249.198 272.264 255.76 275.844 259.917 281.711 262.499 289.232 265.799 297.325 266.479 305.291 267.531 317.389 269.125 329.672 267.932 341.809 269.697 348.088 270.611 354.738 270.024 359.775 275.951 359.878 274.352 360.005 273.374 359.995 272.406 359.932 262.117 359.902 251.834 360.465 241.56 360.606 239.032 359.682 237.721 357.496 236.709ZM325.922 236.533C324.039 236.411 322.733 235.682 322.724 233.736 322.724 231.873 323.892 230.807 325.687 230.817 327.491 230.822 328.616 231.951 328.597 233.79 328.577 235.496 327.555 236.46 325.922 236.533Z" fill="#EEEEEE" fill-rule="evenodd" transform="matrix(1 0 0 1.00184 415.367 23.5192)"/><path d="M297.247 421.638C293.125 423.345 289.672 426.137 287.037 429.79 285.193 432.352 282.822 433.628 279.633 433.692 274.768 433.804 269.902 433.785 265.066 433.276 264.289 433.198 263.394 433.369 262.636 432.23 266.919 430.714 270.357 428.264 272.89 424.445 275.33 420.753 277.178 416.939 277.976 412.724 277.12 412.176 276.626 412.367 276.083 412.509 267.711 414.65 262.592 420.455 259.345 427.985 258.093 430.885 256.753 431.457 253.946 430.455 249.213 428.763 244.391 427.33 239.584 425.834 236.748 424.949 233.711 424.841 230.694 423.531 239.105 421.149 245.799 414.352 245.149 409.037 235.535 409.579 229.477 415.218 225.037 423.286 217.027 421.922 209.262 422.978 200.954 424.885 202.88 420.254 206.621 416.831 205.521 411.824 205.262 411.775 204.978 411.638 204.738 411.697 204.029 411.873 203.335 412.112 202.641 412.347 197.516 414.073 193.491 417.643 192.078 422.509 190.391 428.308 186.841 431.936 182.259 435.125 181.457 435.677 180.567 436.352 181.54 438.235 187.78 434.65 193.819 430.562 200.924 428.939 205.819 437.638 213.535 441.677 222.689 444.323 222.284 437.78 218.548 433.237 208.318 426.391 216.034 425.364 223.33 424.709 230.689 427.017 232.768 437.355 243.134 442.352 249.941 441.976 250.244 437.223 247.13 433.99 244.626 430.352 252.787 433.438 261.022 435.579 269.384 436.836 270.479 442.694 274.513 445.276 279.418 446.518 281.839 447.13 284.67 447.193 286.582 444.66 283.589 441.922 280.719 439.418 277.164 437.051 290.416 435.095 303.359 433.526 313.051 422.337 307.359 420.029 302.279 419.55 297.247 421.638ZM192.484 428.215C192.802 422.973 198.636 415.927 203.389 415.032 201.13 420.641 198.088 425.213 192.484 428.215ZM219.056 440.968C212.601 438.318 207.819 434.68 204.059 429.203 208.954 428.112 216.445 434.846 219.056 440.968ZM229.628 421.12C231.051 417.183 237.619 412.562 242.738 411.951 239.413 416.919 235.575 420.264 229.628 421.12ZM246.523 439.496C240.949 438.323 235.306 433.247 235.046 429.35 239.951 429.927 245.33 434.597 246.523 439.496ZM273.844 416.122C273.54 421.071 266.122 429.208 260.196 430.665 263.819 424.406 266.895 418.567 273.844 416.122ZM282.161 443.648C278.274 444.822 273.262 441.892 272.259 437.672 276.205 438.822 279.521 440.553 282.161 443.648ZM289.594 431.712C292.039 425.628 301.012 421.702 306.548 424.435 301.746 428.621 295.389 431.315 289.594 431.712Z" fill="#EEEEEE" fill-rule="evenodd" transform="matrix(1 0 0 1.00184 415.367 23.5192)"/><path d="M201.051 57.1394C210.743 66.1271 222.054 65.5501 233.193 61.4572 241.433 58.4352 246.851 50.6455 254.729 46.1907 231.447 46.3667 208.425 42.9438 185.144 44.0098 189.125 46.1956 192.543 48.9046 195.638 52.0587 197.374 53.824 199.247 55.4572 201.051 57.1394Z" fill="#EEEEEE" fill-rule="evenodd" transform="matrix(1 0 0 1.00184 415.367 23.5192)"/><path d="M151.203 339.858C150.098 331.711 152.435 324.763 158.494 318.631 164.372 312.67 165.628 304.919 163.487 296.411 161.379 303.394 159.472 306.856 154.856 311.858 153.242 313.609 151.374 315.13 149.78 316.895 144.65 322.572 141.203 328.782 144.059 336.773 144.914 339.164 144.318 341.428 143.628 343.746 141.516 350.817 136.553 355.892 131.506 360.836 129.912 362.401 129.677 363.795 130.284 365.888 132.831 365.247 135.134 364.186 137.389 363.017 146.782 358.166 152.773 351.413 151.203 339.858Z" fill="#EEEEEE" fill-rule="evenodd" transform="matrix(1 0 0 1.00184 415.367 23.5192)"/><path d="M180.616 162.186C169.971 157.638 159.164 153.628 147.8 151.257 142.064 150.059 136.308 149.139 130.24 148.533 129.858 151.452 130.034 154.142 130.22 156.792 154.665 158.743 178.362 162.45 199.516 177.34 194.034 170.484 188.112 165.384 180.616 162.186Z" fill="#EEEEEE" fill-rule="evenodd" transform="matrix(1 0 0 1.00184 415.367 23.5192)"/><path d="M338.587 322.308C338.054 326.127 339.677 329.12 342.836 331.193 345.286 332.797 347.799 334.308 350.396 335.658 352.792 336.91 355.394 337.658 358.377 338.22 359.12 328.675 359.775 319.438 359.907 309.687 354.988 313.154 349.858 314.988 344.685 316.743 341.834 317.702 339.066 318.885 338.587 322.308Z" fill="#EEEEEE" fill-rule="evenodd" transform="matrix(1 0 0 1.00184 415.367 23.5192)"/><path d="M340.103 209.218C334.773 207.687 329.369 205.98 325.051 202.66 321.467 199.897 318.196 200.685 314.484 201.022 314.694 202.9 315.809 204.156 316.797 205.452 320.279 210.059 325.355 212.274 330.509 214.259 338.875 217.487 347.57 219.907 355.105 225.061 356.797 226.22 358.205 227.868 360.293 228.518 360.641 225.413 360.655 225.399 359.682 223.927 354.905 216.699 348.46 211.628 340.103 209.218Z" fill="#EEEEEE" fill-rule="evenodd" transform="matrix(1 0 0 1.00184 415.367 23.5192)"/><path d="M345.31 276.377C350.191 276.944 354.983 277.927 359.516 279.677 360.215 278.298 359.433 277.653 358.87 276.973 356.939 274.68 354.367 273.638 351.501 273.061 343.628 271.477 335.609 271.066 327.668 271.032 313.1 270.968 298.763 269.775 284.655 265.888 288.289 268.768 292.137 271.159 296.66 272.308 304.156 274.23 311.726 275.301 319.491 275.399 328.098 275.511 336.733 275.379 345.31 276.377Z" fill="#EEEEEE" fill-rule="evenodd" transform="matrix(1 0 0 1.00184 415.367 23.5192)"/><path d="M335.325 226.308C342.23 228.161 348.949 230.597 355.555 233.364 357.051 233.99 358.377 235.081 360.088 235.203 360.641 232.362 360.641 232.362 358.719 230.689 351.922 224.782 343.79 221.482 335.399 218.694 327.071 215.922 318.773 213.13 313.193 205.54 312.866 206.714 313.33 207.555 313.775 208.323 318.748 216.949 325.325 223.628 335.325 226.308Z" fill="#EEEEEE" fill-rule="evenodd" transform="matrix(1 0 0 1.00184 415.367 23.5192)"/><path d="M360.924 82.9438C353.917 87.6528 346.049 90.3716 342.601 98.4108 348.142 94.5477 354.171 91.9853 360.543 90.3619 361.105 87.912 361.076 85.7164 360.924 82.9438Z" fill="#EEEEEE" fill-rule="evenodd" transform="matrix(1 0 0 1.00184 415.367 23.5192)"/><path d="M330.264 425.012C328.313 425.09 326.44 427.13 326.523 429.081 326.621 431.257 328.743 433.35 330.826 433.325 332.983 433.306 334.929 431.384 334.905 429.296 334.875 427.271 332.347 424.924 330.264 425.012ZM330.719 431.012C329.496 431.086 328.465 430.782 328.499 429.291 328.523 427.946 329.452 427.443 330.274 427.335 331.927 427.276 332.963 427.741 332.963 429.086 332.958 430.367 331.941 430.934 330.719 431.012Z" fill="#EEEEEE" fill-rule="evenodd" transform="matrix(1 0 0 1.00184 415.367 23.5192)"/><path d="M160.064 426.284C158.122 426.298 156.093 428.293 156.171 430.147 156.254 432.196 158.117 434.039 160.122 433.932 162.303 433.819 163.868 432.773 164.015 430.469 164.147 428.377 162.029 426.279 160.064 426.284ZM160.005 431.785C158.934 431.8 158.269 431.193 158.342 430.068 158.411 429.046 158.885 428.337 160.044 428.333 161.09 428.323 161.775 428.743 161.971 429.756 161.731 430.929 161.188 431.765 160.005 431.785Z" fill="#EEEEEE" fill-rule="evenodd" transform="matrix(1 0 0 1.00184 415.367 23.5192)"/><path d="M359.765 149.721C360.763 145.907 360.318 142.156 360.66 138.039 357.785 141.643 357.462 146.836 359.765 149.721Z" fill="#EEEEEE" fill-rule="evenodd" transform="matrix(1 0 0 1.00184 415.367 23.5192)"/><path d="M128.675 171.834C128.719 171.834 128.758 171.834 128.787 171.834 128.787 168.323 128.787 164.802 128.787 161.296 128.753 161.296 128.714 161.296 128.675 161.296 128.675 164.807 128.675 168.318 128.675 171.834Z" fill="#EEEEEE" fill-rule="evenodd" transform="matrix(1 0 0 1.00184 415.367 23.5192)"/><path d="M128.67 226.122C128.709 226.122 128.738 226.122 128.768 226.122 128.768 222.939 128.768 219.751 128.768 216.562 128.738 216.562 128.709 216.562 128.67 216.562 128.67 219.751 128.67 222.939 128.67 226.122Z" fill="#EEEEEE" fill-rule="evenodd" transform="matrix(1 0 0 1.00184 415.367 23.5192)"/><text fill="#EEEEEE" font-family="Arial,Arial_MSFontService,sans-serif" font-weight="700" font-size="5" transform="matrix(4.88998 0 0 4.89899 415.367 587)">Created by Imogen Oh</text><text fill="#EEEEEE" font-family="Arial,Arial_MSFontService,sans-serif" font-weight="700" font-size="5" transform="matrix(4.88998 0 0 4.89899 415.367 611)">from the Noun Project</text></g></svg>