<svg width="208" height="300" xmlns="http://www.w3.org/2000/svg" xmlns:xlink="http://www.w3.org/1999/xlink" xml:space="preserve" overflow="hidden"><defs><clipPath id="clip0"><rect x="478" y="180" width="208" height="300"/></clipPath></defs><g clip-path="url(#clip0)" transform="translate(-478 -180)"><path d="M191.739 276.625C185.573 289.333 178.542 303.813 178.277 322.686 178.277 322.853 178.138 322.979 177.984 322.979 177.915 322.979 177.845 322.951 177.789 322.909 159.389 306.616 157.422 286.248 155.539 266.721 154.102 251.78 152.707 237.328 144.002 225.638 121.097 194.893 126.467 178.402 132.396 160.172 135.884 149.472 139.552 138.173 137.753 122.996 137.739 122.829 137.851 122.689 138.004 122.675 138.13 122.661 138.241 122.717 138.297 122.815 150.629 140.74 151.633 159.837 152.512 176.564 153.223 190.235 153.865 202.301 160.547 210.769 162.068 212.694 162.919 213.322 163.323 213.001 164.132 212.359 163.881 208.69 163.56 203.822 163.295 199.832 162.96 195.062 163.156 190.388 163.588 180.107 166.518 170.398 177.998 170.887 178.11 170.887 178.207 170.956 178.249 171.054 178.863 172.435 178.779 173.983 178.654 176.229 178.249 183.26 177.426 197.238 197.291 233.896 205.298 248.683 199.132 261.391 191.725 276.625ZM246.338 221.997C245.041 220.519 244.064 220.254 243.325 220.909 241.888 222.179 241.637 227.382 241.344 233.743 240.842 244.498 240.186 258.658 233.602 262.075 232.137 262.829 231.328 262.661 230.868 261.754 230.254 260.569 230.101 258.239 229.905 255.142 229.556 249.785 229.068 242.197 225.706 234.175 223.293 228.386 219.68 223.685 216.178 219.124 211.561 213.097 207.111 207.308 205.842 199.58 205.842 199.51 205.814 199.454 205.758 199.399 205.646 199.287 205.451 199.287 205.34 199.399 196.928 207.81 200.806 218.007 205.019 229.056 207.809 236.366 210.738 244.052 210.292 251.808 209.734 261.475 205.577 269.915 201.183 278.815 195.393 290.561 189.186 303.143 190.176 320.555 190.19 320.694 190.288 320.806 190.427 320.834 203.052 322.884 222.177 315.198 237.299 301.918 242.99 296.91 248.124 291.121 252.127 284.759 256.131 278.384 259.019 271.437 260.204 264.128 262.366 250.792 258.893 236.298 246.338 222.013ZM159.209 148.453C160.088 154.995 160.437 163.226 160.339 174.148 160.339 174.246 160.381 174.344 160.451 174.4 160.576 174.497 160.758 174.469 160.855 174.344 162.432 172.223 164.566 170.103 166.868 167.843 174.54 160.282 183.998 150.936 180.915 133.024 178.627 119.716 171.513 109.644 165.012 100.465 159.558 92.751 154.55 85.6648 153.267 77.8529 153.253 77.7692 153.211 77.6716 153.127 77.6297 152.988 77.546 152.806 77.6018 152.723 77.7413 147.798 86.1671 144.52 92.2909 144.367 100.172 144.213 108.026 147.199 117.61 154.815 132.941 156.88 137.112 158.303 141.952 159.196 148.481ZM195.967 140.487C178.279 173.59 185.184 183.188 192.354 193.148 193.903 195.296 195.465 197.472 196.79 199.913 196.846 200.011 196.958 200.081 197.069 200.067 197.237 200.053 197.348 199.913 197.334 199.746 197.265 198.909 199.762 194.668 203.096 188.991 209.15 178.682 217.938 163.728 219.249 155.316 221.258 142.524 218.97 127.862 213.823 114.919 208.662 101.945 200.64 90.6738 191.197 84.7593 191.127 84.7174 191.029 84.7035 190.945 84.7314 190.792 84.7872 190.708 84.9546 190.764 85.108 191.197 86.3356 191.671 87.6609 192.201 89.0977 196.902 102.015 204.84 123.875 195.967 140.476ZM219.361 200.808C220.268 209.722 224.006 218.301 230.744 225.513 230.758 225.527 230.772 225.541 230.786 225.555 230.911 225.653 231.093 225.639 231.204 225.513 234.943 220.896 238.389 217.813 241.36 215.148 246.452 210.601 250.232 207.211 252.004 199.385 255.157 185.365 247.066 169.086 240.272 155.442 237.342 149.541 234.65 144.129 233.227 139.637 233.199 139.511 233.074 139.414 232.948 139.414 232.781 139.414 232.655 139.539 232.655 139.707 232.655 145.9 232.348 151.69 231.288 157.242 230.228 162.78 228.442 168.095 225.471 173.34 220.533 182.058 218.44 191.6 219.375 200.807ZM180.021 102.365C182.086 103.997 183.732 105.309 184.443 106.369 184.499 106.453 184.611 106.508 184.722 106.508 184.89 106.495 185.001 106.355 184.987 106.188 184.806 104.179 184.109 99.3242 183.718 96.5762L183.564 95.4463C182.7 89.3082 183.871 82.8776 184.973 76.7813 185.434 74.2424 185.88 71.7734 186.173 69.4158 186.675 65.2868 185.28 59.4415 183.104 53.5827 180.272 45.9522 176.115 38.2657 173.13 34.2481 173.074 34.1644 172.977 34.1226 172.865 34.1365 172.697 34.1505 172.586 34.29 172.6 34.4574 172.949 38.2656 173.172 42.1575 172.851 45.9379 172.53 49.6905 171.665 53.3313 169.852 56.6374 155.47 82.8772 171.344 95.4595 180.035 102.352ZM145.161 274.77C145.481 256.97 142.873 250.874 136.261 235.416 134.768 231.942 133.08 227.995 131.211 223.391 131.155 223.238 130.987 223.168 130.834 223.21 129.76 223.586 128.839 225.149 128.1 227.06 126.97 230.003 126.245 233.825 126.119 235.206 125.324 244.413 123.747 249.226 122.074 251.095 121.041 252.253 119.981 252.197 119.06 251.36 118.042 250.439 117.191 248.64 116.675 246.408 115.531 241.358 116.229 234.174 121.111 230.017 122.353 228.957 123.287 227.618 123.971 226.069 126.021 221.424 125.742 214.84 123.957 208.255 122.171 201.699 118.893 195.114 114.918 190.469 112.741 187.916 110.342 185.936 107.873 184.833 107.817 184.806 107.747 184.792 107.677 184.806 107.524 184.847 107.426 185.001 107.468 185.168 110.063 195.31 106.924 204.182 103.325 214.351 98.4146 228.259 92.6393 244.567 99.3352 269.872 103.367 285.091 112.643 296.962 123.134 305.444 137.53 317.078 154.228 322.309 162.724 321.054 162.779 321.04 162.821 321.026 162.863 320.984 162.989 320.886 163.003 320.691 162.905 320.566 157.534 314.163 153.14 306.253 150.057 298.329 146.807 289.932 145.035 281.492 145.147 274.768Z" fill="#EEEEEE" fill-rule="evenodd" transform="matrix(1.2195 0 0 1 364.184 149.427)"/><text fill="#EEEEEE" font-family="Arial,Arial_MSFontService,sans-serif" font-weight="700" font-size="5" transform="matrix(4.35503 0 0 3.57115 364.184 569)">Created by Isaac haq</text><text fill="#EEEEEE" font-family="Arial,Arial_MSFontService,sans-serif" font-weight="700" font-size="5" transform="matrix(4.35503 0 0 3.57115 364.184 587)">from Noun Project</text></g></svg>