<svg width="442" height="446" xmlns="http://www.w3.org/2000/svg" xmlns:xlink="http://www.w3.org/1999/xlink" xml:space="preserve" overflow="hidden"><defs><clipPath id="clip0"><rect x="373" y="132" width="442" height="446"/></clipPath></defs><g clip-path="url(#clip0)" transform="translate(-373 -132)"><path d="M431.723 156.42C430.619 152.774 426.768 150.714 423.123 151.818 419.477 152.922 417.417 156.773 418.521 160.418L419.487 163.658C420.534 167.323 424.353 169.445 428.018 168.398 431.682 167.351 433.804 163.531 432.757 159.867 432.412 158.695 432.068 157.546 431.723 156.42Z" fill="#EEEEEE" transform="matrix(1.00181 0 0 1 373 132)"/><path d="M57.3563 82.1049C54.3769 79.7352 50.0407 80.229 47.6705 83.2079L45.4645 86.0344C43.1325 89.0517 43.688 93.3881 46.7054 95.7201 49.7227 98.0521 54.0591 97.4966 56.3911 94.4792L58.4593 91.8251C60.8409 88.8547 60.3636 84.516 57.3932 82.1343 57.3809 82.1245 57.3686 82.1147 57.3563 82.1049Z" fill="#EEEEEE" transform="matrix(1.00181 0 0 1 373 132)"/><path d="M275.544 21.1639C279.218 22.1728 283.015 20.0123 284.024 16.3383 285.033 12.6642 282.872 8.86785 279.198 7.85891L275.751 6.89378C272.058 5.94195 268.293 8.16419 267.341 11.8573 266.389 15.5504 268.611 19.3159 272.304 20.2677Z" fill="#EEEEEE" transform="matrix(1.00181 0 0 1 373 132)"/><path d="M18.0272 151.043C21.5865 152.395 25.5677 150.605 26.9196 147.046 26.9198 147.045 26.92 147.045 26.9202 147.044L28.1611 143.908C29.5793 140.367 27.8586 136.347 24.3178 134.929 20.777 133.51 16.7569 135.231 15.3387 138.772L14.0288 142.219C12.722 145.759 14.5041 149.691 18.0272 151.043Z" fill="#EEEEEE" transform="matrix(1.00181 0 0 1 373 132)"/><path d="M432.447 199.196 433.343 199.196C437.118 198.697 439.773 195.233 439.274 191.458 439.273 191.452 439.272 191.446 439.272 191.44 439.111 190.245 438.95 189.096 438.789 187.993 438.228 184.186 434.686 181.555 430.879 182.116 427.071 182.678 424.44 186.22 425.002 190.027 425.002 191.13 425.312 192.233 425.484 193.474 426.064 196.844 429.028 199.28 432.447 199.196Z" fill="#EEEEEE" transform="matrix(1.00181 0 0 1 373 132)"/><path d="M76.521 71.9366 78.9338 69.6272C81.7226 67.0287 81.877 62.6614 79.2785 59.8725 76.68 57.0836 72.3126 56.9293 69.5238 59.5278L66.9041 62.0096C64.1724 64.6652 64.1106 69.0325 66.7663 71.7643 69.4219 74.496 73.7892 74.5577 76.521 71.9021Z" fill="#EEEEEE" transform="matrix(1.00181 0 0 1 373 132)"/><path d="M212.397 13.7876 215.844 13.7876C219.652 13.7876 222.738 10.7011 222.738 6.89378 222.738 3.08645 219.652-1.53073e-15 215.844-1.53073e-15L215.844 0 212.397 0C208.59 0.0666283 205.558 3.20709 205.624 7.01442 205.691 10.8218 208.831 13.8542 212.639 13.7876Z" fill="#EEEEEE" transform="matrix(1.00181 0 0 1 373 132)"/><path d="M0.241282 237.077C0.495132 240.695 3.50849 243.497 7.13506 243.488L7.6521 243.488C11.4494 243.213 14.3045 239.911 14.029 236.114 14.0289 236.113 14.0289 236.113 14.0288 236.112 14.0288 234.986 13.9599 233.837 13.822 232.665 13.6031 228.858 10.3392 225.949 6.53186 226.168 2.72453 226.387-0.184452 229.651 0.0344697 233.458 0.0114899 234.676 0.0804274 235.882 0.241282 237.077Z" fill="#EEEEEE" transform="matrix(1.00181 0 0 1 373 132)"/><path d="M5.58396 169.518C5.30821 170.667 5.04395 171.816 4.79118 172.965 3.9726 176.687 6.32602 180.367 10.0477 181.186 13.7693 182.004 17.4499 179.651 18.2685 175.929 18.5213 174.826 18.7741 173.677 19.0268 172.482 19.9025 168.77 17.6031 165.051 13.891 164.175 10.1788 163.3 6.45965 165.599 5.58396 169.311Z" fill="#EEEEEE" transform="matrix(1.00181 0 0 1 373 132)"/><path d="M0.482565 201.333C0.482565 202.528 0.390648 203.677 0.206813 204.78-0.0683535 208.577 2.78696 211.879 6.58433 212.154 6.59556 212.155 6.60679 212.155 6.61803 212.156L7.10059 212.156C10.7272 212.165 13.7405 209.363 13.9944 205.745 13.9944 204.642 14.0863 203.493 14.2701 202.298 14.6033 198.491 11.7869 195.134 7.97955 194.801 4.17222 194.468 0.815705 197.284 0.482564 201.092Z" fill="#EEEEEE" transform="matrix(1.00181 0 0 1 373 132)"/><path d="M14.2701 299.879C15.6408 303.439 19.6377 305.214 23.1976 303.843 26.7574 302.473 28.5321 298.476 27.1615 294.916L25.9896 291.779C24.7046 288.191 20.7539 286.324 17.1655 287.609 13.5771 288.893 11.7098 292.844 12.9948 296.433Z" fill="#EEEEEE" transform="matrix(1.00181 0 0 1 373 132)"/><path d="M4.96352 268.857C5.68567 272.064 8.57131 274.315 11.8573 274.235 12.3614 274.289 12.8699 274.289 13.3739 274.235 17.0915 273.413 19.4391 269.733 18.6174 266.015 18.616 266.009 18.6146 266.003 18.6132 265.996 18.3719 264.893 18.1306 263.79 17.9238 262.55 17.1338 258.761 13.4224 256.331 9.63406 257.121 5.84576 257.911 3.41518 261.622 4.20521 265.411 4.44649 266.617 4.68777 267.789 4.96352 268.857Z" fill="#EEEEEE" transform="matrix(1.00181 0 0 1 373 132)"/><path d="M122.227 37.5366C123.329 37.5411 124.417 37.281 125.398 36.7783L128.397 35.2617C131.804 33.5579 133.185 29.4143 131.482 26.0068 129.778 22.5992 125.634 21.218 122.227 22.9218L119.056 24.5419C115.667 26.2778 114.327 30.432 116.063 33.8206 117.247 36.1319 119.63 37.5816 122.227 37.5711Z" fill="#EEEEEE" transform="matrix(1.00181 0 0 1 373 132)"/><path d="M304.016 31.2978C307.499 32.8397 311.574 31.2656 313.115 27.7819 314.657 24.2982 313.083 20.2241 309.6 18.6821L306.153 17.2689C302.739 15.5835 298.605 16.9848 296.92 20.3988 295.234 23.8128 296.635 27.9466 300.049 29.632 300.329 29.7701 300.618 29.889 300.913 29.9879Z" fill="#EEEEEE" transform="matrix(1.00181 0 0 1 373 132)"/><path d="M338.036 33.8485 335.003 31.9871C331.748 30.0073 327.504 31.0413 325.524 34.2966 323.544 37.5518 324.578 41.7957 327.834 43.7755L330.695 45.5679C333.921 47.5953 338.181 46.6231 340.208 43.3963 342.235 40.1696 341.263 35.9103 338.037 33.8829Z" fill="#EEEEEE" transform="matrix(1.00181 0 0 1 373 132)"/><path d="M150.905 25.3002C151.668 25.2986 152.425 25.1705 153.145 24.921L156.351 23.8525C159.968 22.6627 161.936 18.766 160.746 15.1491 159.556 11.5321 155.659 9.56451 152.042 10.7543L148.595 11.8918C144.997 13.137 143.09 17.0632 144.336 20.6611 145.295 23.4329 147.903 25.2941 150.836 25.3002Z" fill="#EEEEEE" transform="matrix(1.00181 0 0 1 373 132)"/><path d="M181.1 17.2345C181.524 17.2739 181.951 17.2739 182.375 17.2345L185.822 16.6485C189.582 15.9727 192.082 12.377 191.406 8.61723 190.73 4.85749 187.134 2.35746 183.375 3.03326L179.928 3.6537C176.12 4.00588 173.319 7.37783 173.672 11.1852 174.024 14.9925 177.396 17.7934 181.203 17.4413Z" fill="#EEEEEE" transform="matrix(1.00181 0 0 1 373 132)"/><path d="M95.6512 53.8749C97.0997 53.8728 98.5108 53.4145 99.6841 52.5651L102.442 50.6348C105.564 48.4551 106.327 44.1572 104.148 41.0352 101.968 37.9132 97.6702 37.1493 94.5482 39.329L91.6528 41.3972C88.5498 43.6033 87.8227 47.9072 90.0288 51.0102 91.3298 52.8401 93.4404 53.9218 95.6857 53.9094Z" fill="#EEEEEE" transform="matrix(1.00181 0 0 1 373 132)"/><path d="M359.476 65.0773C363.284 65.0776 366.37 61.9914 366.37 58.184 366.371 56.1686 365.489 54.2541 363.957 52.9442L361.2 50.6348C358.204 48.2849 353.871 48.8083 351.521 51.8039 349.258 54.6885 349.649 58.8396 352.41 61.2512L354.961 63.4228C356.219 64.4984 357.821 65.0857 359.476 65.0773Z" fill="#EEEEEE" transform="matrix(1.00181 0 0 1 373 132)"/><path d="M420.107 126.363C418.479 122.917 414.367 121.444 410.921 123.071 407.475 124.699 406.002 128.812 407.629 132.257L409.042 135.29C410.613 138.765 414.703 140.308 418.177 138.737 421.651 137.167 423.194 133.077 421.624 129.603Z" fill="#EEEEEE" transform="matrix(1.00181 0 0 1 373 132)"/><path d="M404.251 98.3742C402.138 95.2046 397.856 94.3482 394.686 96.4612 391.517 98.5743 390.66 102.857 392.773 106.026L394.6 108.818C396.665 112.026 400.94 112.952 404.148 110.886 407.356 108.821 408.281 104.546 406.216 101.339Z" fill="#EEEEEE" transform="matrix(1.00181 0 0 1 373 132)"/><path d="M247.59 1.58557 244.143 1.17194C240.336 0.772173 236.925 3.53455 236.526 7.34188 236.126 11.1492 238.888 14.5597 242.696 14.9595L246.142 15.3387 247.004 15.3387C250.811 15.5671 254.083 12.6658 254.312 8.85851 254.54 5.05118 251.639 1.77954 247.831 1.5511Z" fill="#EEEEEE" transform="matrix(1.00181 0 0 1 373 132)"/><path d="M180.514 437.755C184.264 438.44 187.86 435.956 188.545 432.206 189.23 428.455 186.746 424.86 182.995 424.174L179.549 423.554C175.847 422.663 172.124 424.942 171.233 428.644 170.343 432.345 172.622 436.068 176.323 436.959 176.501 437.002 176.68 437.037 176.86 437.066Z" fill="#EEEEEE" transform="matrix(1.00181 0 0 1 373 132)"/><path d="M384.88 367.887C387.421 365.031 387.167 360.656 384.311 358.115 381.456 355.573 377.08 355.828 374.539 358.683L372.264 361.165C369.675 364.021 369.891 368.434 372.747 371.023 375.602 373.612 380.016 373.396 382.605 370.541Z" fill="#EEEEEE" transform="matrix(1.00181 0 0 1 373 132)"/><path d="M434.308 213.087C430.501 213.087 427.414 216.173 427.414 219.981L427.414 220.601C427.414 221.727 427.414 222.876 427.414 224.048 427.414 227.855 430.501 230.942 434.308 230.942L434.308 230.942C438.115 230.942 441.202 227.855 441.202 224.048 441.202 222.841 441.202 221.669 441.202 220.429L441.202 219.808C441.108 216.068 438.049 213.086 434.308 213.087Z" fill="#EEEEEE" transform="matrix(1.00181 0 0 1 373 132)"/><path d="M335.52 409.008C338.735 406.969 339.688 402.709 337.649 399.494 335.654 396.349 331.521 395.357 328.316 397.254L325.455 398.978C322.321 401.138 321.531 405.431 323.692 408.566 325.618 411.36 329.29 412.337 332.349 410.869Z" fill="#EEEEEE" transform="matrix(1.00181 0 0 1 373 132)"/><path d="M250.83 432.412C250.416 428.628 247.012 425.895 243.227 426.31 243.222 426.31 243.217 426.311 243.213 426.311L239.766 426.656C235.958 426.827 233.011 430.053 233.182 433.86 233.353 437.667 236.579 440.615 240.386 440.444L241.282 440.444 244.729 440.099C248.514 439.689 251.251 436.288 250.841 432.503 250.837 432.473 250.834 432.443 250.83 432.412Z" fill="#EEEEEE" transform="matrix(1.00181 0 0 1 373 132)"/><path d="M281.335 425.76C280.374 422.077 276.608 419.87 272.925 420.831L269.685 421.658C265.991 422.583 263.747 426.327 264.673 430.02 265.436 433.068 268.163 435.214 271.305 435.239 271.851 435.234 272.395 435.165 272.925 435.032L276.372 434.17C280.06 433.226 282.285 429.471 281.341 425.783 281.339 425.775 281.337 425.767 281.335 425.76Z" fill="#EEEEEE" transform="matrix(1.00181 0 0 1 373 132)"/><path d="M310.53 414.73C309.049 411.223 305.004 409.581 301.497 411.062 301.486 411.067 301.476 411.072 301.465 411.076L298.363 412.351C294.831 413.789 293.134 417.817 294.571 421.348 296.009 424.879 300.036 426.577 303.568 425.139L307.014 423.761C310.462 422.221 312.029 418.195 310.53 414.73Z" fill="#EEEEEE" transform="matrix(1.00181 0 0 1 373 132)"/><path d="M386.844 75.6248 384.466 72.9362C381.915 70.0807 377.532 69.8338 374.677 72.3847 371.821 74.9356 371.575 79.3184 374.125 82.1739L376.331 84.6901C378.628 87.7265 382.952 88.3259 385.988 86.0289 389.025 83.7319 389.624 79.4083 387.327 76.3719 387.127 76.1075 386.908 75.8577 386.672 75.6248Z" fill="#EEEEEE" transform="matrix(1.00181 0 0 1 373 132)"/><path d="M424.278 292.469C427.291 292.472 429.957 290.518 430.861 287.643L431.93 284.196C432.94 280.525 430.783 276.73 427.112 275.72 423.561 274.743 419.869 276.73 418.728 280.232 418.406 281.312 418.073 282.381 417.729 283.438 416.567 287.064 418.565 290.944 422.191 292.106 422.877 292.325 423.592 292.436 424.312 292.434Z" fill="#EEEEEE" transform="matrix(1.00181 0 0 1 373 132)"/><path d="M438.341 256.311C438.525 255.139 438.709 253.99 438.893 252.864 439.445 249.057 436.806 245.523 432.998 244.97 429.191 244.418 425.657 247.057 425.105 250.865 424.944 251.968 424.772 253.117 424.588 254.312 423.97 258.068 426.514 261.615 430.271 262.233 430.284 262.235 430.297 262.237 430.31 262.239L431.413 262.239C434.886 262.291 437.855 259.75 438.341 256.311Z" fill="#EEEEEE" transform="matrix(1.00181 0 0 1 373 132)"/><path d="M392.945 347.171C396.087 349.322 400.377 348.519 402.528 345.378L404.527 342.414C406.631 339.216 405.743 334.918 402.545 332.814 399.347 330.711 395.049 331.598 392.945 334.796L391.084 337.588C388.951 340.742 389.778 345.028 392.931 347.161 392.936 347.164 392.941 347.168 392.945 347.171Z" fill="#EEEEEE" transform="matrix(1.00181 0 0 1 373 132)"/><path d="M417.074 305.153C413.614 303.564 409.521 305.081 407.932 308.541 407.923 308.56 407.914 308.58 407.905 308.6L406.457 311.633C404.782 315.06 406.202 319.196 409.628 320.871 413.055 322.546 417.191 321.126 418.866 317.7L420.417 314.46C422.09 311.04 420.674 306.911 417.254 305.238 417.194 305.209 417.134 305.181 417.074 305.153Z" fill="#EEEEEE" transform="matrix(1.00181 0 0 1 373 132)"/><path d="M354.582 394.048C356.148 394.047 357.668 393.512 358.89 392.532L361.682 390.257C364.604 387.811 364.99 383.459 362.544 380.537 360.098 377.615 355.746 377.229 352.824 379.675L350.238 381.812C347.269 384.195 346.793 388.533 349.175 391.503 350.49 393.142 352.48 394.092 354.582 394.083Z" fill="#EEEEEE" transform="matrix(1.00181 0 0 1 373 132)"/><path d="M64.7326 367.404C62.0389 370.095 62.0365 374.46 64.7272 377.153 64.729 377.155 64.7308 377.157 64.7326 377.159L67.3178 379.675C69.9397 382.436 74.3032 382.548 77.0638 379.926 79.8244 377.304 79.9369 372.941 77.3149 370.18 77.1717 370.029 77.0218 369.885 76.8657 369.748L74.4873 367.404C71.7966 364.71 67.4317 364.708 64.738 367.399 64.7362 367.4 64.7344 367.402 64.7326 367.404Z" fill="#EEEEEE" transform="matrix(1.00181 0 0 1 373 132)"/><path d="M38.8809 107.302C35.5912 105.385 31.3706 106.498 29.4539 109.788 29.4481 109.798 29.4422 109.808 29.4364 109.818L27.6785 112.92C25.7749 116.242 26.9246 120.478 30.2465 122.382 33.5684 124.285 37.8045 123.136 39.7082 119.814L41.3972 116.884C43.3707 113.628 42.3313 109.389 39.0754 107.415 39.0112 107.376 38.9464 107.338 38.8809 107.302Z" fill="#EEEEEE" transform="matrix(1.00181 0 0 1 373 132)"/><path d="M45.8092 355.719C48.0591 358.79 52.3729 359.456 55.4443 357.206 58.5157 354.957 59.1817 350.643 56.9317 347.571 56.8577 347.47 56.7808 347.371 56.7013 347.274L54.6677 344.62C52.3833 341.574 48.0622 340.957 45.0164 343.241 41.9705 345.526 41.3532 349.847 43.6376 352.893Z" fill="#EEEEEE" transform="matrix(1.00181 0 0 1 373 132)"/><path d="M27.9887 328.902C29.8924 332.224 34.1286 333.374 37.4505 331.47 40.7724 329.567 41.9221 325.33 40.0184 322.008L38.3984 319.079C36.5804 315.728 32.3905 314.486 29.0401 316.304 25.6896 318.122 24.4473 322.312 26.2653 325.662Z" fill="#EEEEEE" transform="matrix(1.00181 0 0 1 373 132)"/><path d="M97.4091 387.051C94.4543 384.65 90.1126 385.099 87.7115 388.054 85.3105 391.009 85.7593 395.35 88.7141 397.751 88.8724 397.88 89.0364 398.002 89.2055 398.116L92.1009 400.218C94.9271 402.77 99.2863 402.547 101.837 399.721 104.389 396.894 104.166 392.535 101.34 389.984 100.921 389.606 100.458 389.281 99.9598 389.016Z" fill="#EEEEEE" transform="matrix(1.00181 0 0 1 373 132)"/><path d="M213.018 427.414 209.571 427.414C205.769 427.219 202.528 430.144 202.333 433.946 202.333 433.952 202.333 433.958 202.332 433.963 202.138 437.766 205.062 441.006 208.864 441.201 208.87 441.201 208.876 441.202 208.882 441.202L212.328 441.202 212.57 441.202C216.377 441.269 219.518 438.236 219.584 434.429 219.651 430.621 216.618 427.481 212.811 427.414Z" fill="#EEEEEE" transform="matrix(1.00181 0 0 1 373 132)"/><path d="M122.951 403.286C119.591 401.478 115.401 402.735 113.592 406.095 111.784 409.455 113.042 413.645 116.401 415.454L119.607 417.143C122.944 418.975 127.135 417.755 128.968 414.418 130.801 411.081 129.581 406.89 126.244 405.057 126.124 404.992 126.003 404.93 125.88 404.872Z" fill="#EEEEEE" transform="matrix(1.00181 0 0 1 373 132)"/><path d="M158.074 425.312C159.304 421.709 157.38 417.791 153.777 416.561 153.773 416.559 153.77 416.558 153.766 416.557L150.595 415.454C147.006 414.169 143.056 416.036 141.771 419.624 140.486 423.213 142.353 427.163 145.941 428.448L149.388 429.62C152.991 430.85 156.909 428.926 158.139 425.323 158.141 425.319 158.142 425.316 158.143 425.312Z" fill="#EEEEEE" transform="matrix(1.00181 0 0 1 373 132)"/><path d="M115.195 155.972C115.195 158.798 115.195 161.625 115.574 164.417 64.0757 191.232 44.0661 254.718 70.8815 306.217 97.697 357.715 161.183 377.725 212.682 350.909 215.326 349.532 217.911 348.044 220.429 346.447 269.463 377.541 334.419 362.998 365.513 313.964 396.607 264.93 382.064 199.973 333.03 168.879 330.512 167.282 327.927 165.794 325.283 164.417 325.49 161.625 325.662 158.833 325.662 155.972 323.559 97.91 274.786 52.5465 216.724 54.6495 161.613 56.6456 117.398 100.861 115.402 155.972ZM164.038 348.998C113.59 348.931 72.7492 307.981 72.816 257.534 72.8588 225.236 89.9551 195.362 117.78 178.963 124.627 209.227 144.445 234.945 171.965 249.279 171.759 252.071 171.586 254.863 171.586 257.724 171.589 288.445 185.056 317.622 208.433 337.554 194.876 345.131 179.603 349.107 164.072 349.101ZM232.424 177.86C256.278 164.582 284.828 162.697 310.22 172.724 305.337 198.726 289.451 221.347 266.651 234.768 261.684 212.601 249.676 192.637 232.424 177.86ZM174.137 234.733C151.337 221.313 135.452 198.691 130.568 172.689 155.986 162.651 184.566 164.549 208.433 177.86 191.162 192.618 179.13 212.57 174.137 234.733ZM220.429 329.592C198.31 312.304 185.38 285.797 185.374 257.724 185.374 256.862 185.374 256.001 185.374 255.173 208.011 263.177 232.708 263.177 255.346 255.173 255.346 256.035 255.346 256.862 255.346 257.724 255.372 285.774 242.496 312.277 220.429 329.592ZM368.197 257.724C368.206 308.19 327.302 349.108 276.836 349.117 261.281 349.12 245.982 345.152 232.389 337.588 255.785 317.652 269.265 288.462 269.271 257.724 269.271 254.898 269.271 252.071 268.892 249.279 296.412 234.945 316.23 209.227 323.077 178.963 351.01 195.367 368.175 225.33 368.197 257.724ZM311.84 155.972C311.84 156.833 311.84 157.661 311.84 158.522 281.423 147.738 247.734 151.552 220.498 168.863 193.261 151.552 159.572 147.738 129.155 158.522 129.155 157.661 129.155 156.833 129.155 155.972 131.115 105.525 173.6 66.2183 224.047 68.1786 271.745 70.0321 309.987 108.274 311.84 155.972Z" fill="#EEEEEE" transform="matrix(1.00181 0 0 1 373 132)"/><path d="M79.0027 158.557C90.4247 158.557 99.6841 149.298 99.6841 137.876 99.6841 126.454 90.4247 117.194 79.0027 117.194 67.5807 117.194 58.3214 126.454 58.3214 137.876 58.3214 149.298 67.5807 158.557 79.0027 158.557Z" fill="#EEEEEE" transform="matrix(1.00181 0 0 1 373 132)"/><path d="M341.242 137.876C341.242 149.298 350.501 158.557 361.923 158.557 373.345 158.557 382.605 149.298 382.605 137.876 382.605 126.454 373.345 117.194 361.923 117.194 350.501 117.194 341.242 126.454 341.242 137.876Z" fill="#EEEEEE" transform="matrix(1.00181 0 0 1 373 132)"/><path d="M241.282 382.605C241.282 371.183 232.023 361.923 220.601 361.923 209.179 361.923 199.92 371.183 199.92 382.605 199.92 394.027 209.179 403.286 220.601 403.286 232.023 403.286 241.282 394.027 241.282 382.605Z" fill="#EEEEEE" transform="matrix(1.00181 0 0 1 373 132)"/><text fill="#EEEEEE" font-family="Arial,Arial_MSFontService,sans-serif" font-weight="700" font-size="5" transform="matrix(3.45312 0 0 3.44689 373 625)">Created by WEBTECHOPS LLP</text><text fill="#EEEEEE" font-family="Arial,Arial_MSFontService,sans-serif" font-weight="700" font-size="5" transform="matrix(3.45312 0 0 3.44689 373 642)">from the Noun Project</text></g></svg>