<svg width="243" height="297" xmlns="http://www.w3.org/2000/svg" xmlns:xlink="http://www.w3.org/1999/xlink" xml:space="preserve" overflow="hidden"><defs><clipPath id="clip0"><rect x="522" y="173" width="243" height="297"/></clipPath></defs><g clip-path="url(#clip0)" transform="translate(-522 -173)"><path d="M149.452 3119.78C85.6296 3128.34 55.1947 3175.43 55.1947 3208.96 55.1947 3217.08 56.8285 3234 58.0356 3254.92 59.1971 3275.06 59.8649 3297.97 58.5429 3316.2 52.7895 3323.03 48.7012 3330.56 48.7012 3338.83 48.6947 3342.98 51.6359 3346.96 55.6005 3348.16L217.938 3396.86C218.858 3397.14 219.819 3397.28 220.779 3397.27L240.259 3397.27C242.825 3397.24 245.367 3396.17 247.158 3394.33 254.785 3385.27 258.811 3372.64 264.61 3363.69 265.659 3362.1 266.232 3360.21 266.233 3358.31L266.233 3278.97 275.162 3258.17C275.677 3256.99 275.955 3255.7 275.973 3254.42 275.973 3216.09 270.353 3182.29 252.333 3156.61 227.414 3124.21 198.647 3114.58 159.801 3111.56 154.886 3111.38 150.136 3115.93 149.452 3119.78ZM181.31 3134.8C183.612 3135.29 185.841 3135.84 188.007 3136.42 204.056 3161.03 207.428 3193.22 207.69 3227.22 184.767 3227 159.723 3225.46 129.87 3221.95L129.87 3270.65C154.987 3272.32 193.43 3275.28 214.184 3276.53 213.66 3308.52 209.593 3342.76 222.301 3377.79L113.636 3345.22C113.798 3312.01 116.178 3291.38 112.216 3271.56 108.289 3251.93 97.5355 3234.87 74.7766 3211.6 74.5844 3209.84 74.7441 3207.93 74.8782 3206.32 89.3527 3192.34 103.928 3181.64 116.883 3175.99 134.419 3174.25 150.408 3171.23 162.845 3163.1 174.2 3155.02 179.371 3144.63 181.31 3134.8ZM160.714 3137.54C158.998 3141.36 156.162 3144.11 152.09 3146.77 144.005 3152.05 129.917 3155.45 112.723 3157.02 111.601 3156.8 110.782 3157.44 109.781 3157.73 105.106 3159.72 100.412 3162.14 95.779 3164.93 114.156 3147.69 138.783 3139.21 160.714 3137.54ZM231.939 3162.29C246.394 3180.72 253.687 3202.76 254.971 3225.7 250.06 3226.05 245.136 3226.38 240.158 3226.62 239.966 3203.84 238.456 3182.39 231.939 3162.29ZM76.8058 3242.85C86.5589 3255.06 90.9968 3264.6 93.141 3275.32 96.048 3289.85 94.5681 3309.13 94.2571 3339.44L70.4138 3332.24C71.4854 3330.4 72.7953 3328.43 75.081 3326.15 76.6821 3324.56 77.7057 3322.41 77.9219 3320.16 79.508 3292.96 78.4075 3267.22 76.8058 3242.85ZM246.854 3275.62C246.614 3302.18 246.753 3329.1 246.753 3355.77 245.768 3357.39 244.852 3359.07 243.912 3360.75 236.971 3333.71 239.783 3305.92 240.158 3276.33 242.509 3276.1 244.876 3275.84 246.854 3275.62Z" fill="#EEEEEE" transform="matrix(1.00121 0 0 1 479.368 -2933.18)"/><text fill="#EEEEEE" font-family="Arial,Arial_MSFontService,sans-serif" font-weight="700" font-size="5" transform="matrix(3.25066 0 0 3.24674 479.368 532)">Created by zidney</text><text fill="#EEEEEE" font-family="Arial,Arial_MSFontService,sans-serif" font-weight="700" font-size="5" transform="matrix(3.25066 0 0 3.24674 479.368 549)">from the Noun Project</text></g></svg>