<svg width="376" height="422" xmlns="http://www.w3.org/2000/svg" xmlns:xlink="http://www.w3.org/1999/xlink" xml:space="preserve" overflow="hidden"><defs><clipPath id="clip0"><rect x="454" y="60" width="376" height="422"/></clipPath><clipPath id="clip1"><rect x="511" y="88" width="258" height="394"/></clipPath><clipPath id="clip2"><rect x="511" y="88" width="258" height="448"/></clipPath></defs><g clip-path="url(#clip0)" transform="translate(-454 -60)"><g clip-path="url(#clip1)"><g clip-path="url(#clip2)"><path d="M880.117 1773.18C880.819 1756.62 880.578 1733.07 880.037 1724.72 880.022 1724.31 824.569 1783.46 824.569 1783.46 824.167 1783.91 823.927 1784.44 823.887 1785 821.46 1816.58 796.032 1843.39 764.267 1855.19 763.745 1855.39 763.565 1855.96 763.906 1856.37 777.703 1873.55 800.003 1879.8 821.721 1870.92 860.886 1854.92 878.634 1808.88 880.118 1773.18ZM847.498 1710.46 815.288 1776.29 871.37 1710.53ZM761.78 1848.07C761.78 1848.13 761.86 1848.21 761.94 1848.21 762.662 1848.16 764.086 1847.64 764.547 1847.08 783.478 1823.92 798.351 1798.78 809.167 1771.67 826.988 1726.99 841.199 1681.42 851.801 1634.94 851.935 1634.34 851.774 1634.26 851.32 1634.7 815.397 1670.18 786.205 1709.6 763.745 1752.98 762.328 1755.71 761.586 1758.61 761.519 1761.68 760.998 1788.44 761.085 1817.24 761.78 1848.07ZM753.316 1576.63C752.955 1576.63 752.602 1577.06 752.254 1577.92 740.182 1607.78 725.119 1636.37 707.07 1663.7 706.649 1664.37 706.671 1665.2 707.152 1665.82L718.322 1680.39C718.743 1680.95 719.685 1680.9 720.026 1680.31 731.791 1660.05 742.754 1639.45 752.915 1618.51 753.199 1617.91 753.486 1617.69 753.773 1617.75L753.773 1618.19C753.867 1618.06 753.96 1617.98 754.055 1617.92 754.107 1617.98 754.159 1618 754.211 1618.07L754.211 1617.88C754.499 1617.83 754.786 1618.04 755.069 1618.64 765.23 1639.57 776.193 1660.17 787.958 1680.44 788.299 1681.03 789.241 1681.08 789.662 1680.52L800.833 1665.95C801.314 1665.32 801.336 1664.5 800.914 1663.83 782.865 1636.5 767.802 1607.91 755.73 1578.05 755.382 1577.19 755.03 1576.76 754.669 1576.75 754.459 1576.75 754.245 1576.98 754.03 1577.29 753.789 1576.91 753.549 1576.63 753.313 1576.64ZM753.872 1638.36C753.521 1638.36 753.169 1638.68 752.814 1639.31L724.257 1691.03C723.996 1691.49 723.996 1692.07 724.278 1692.54L753.775 1742.57 753.775 1742.95C753.877 1743.01 753.982 1742.98 754.092 1742.84 754.132 1742.84 754.173 1742.85 754.212 1742.83L754.212 1742.69 783.709 1692.66C783.99 1692.19 783.99 1691.62 783.73 1691.15L755.172 1639.43C754.85 1638.86 754.531 1638.56 754.212 1638.51L754.212 1638.48C754.098 1638.42 753.985 1638.37 753.871 1638.37ZM753.774 1863C753.511 1863 753.244 1863.1 753.054 1863.29 738.802 1877.69 720.754 1884.99 698.908 1885.21 698.287 1885.22 697.707 1885.49 697.346 1885.94 696.022 1887.61 697.366 1889.2 699.19 1890.11 723.135 1902.24 738.998 1912.76 753.296 1934.29 753.417 1934.47 753.617 1934.54 753.817 1934.52 754.085 1934.72 754.494 1934.7 754.691 1934.4 768.989 1912.88 784.853 1902.35 808.797 1890.23 810.622 1889.31 811.965 1887.73 810.642 1886.06 810.281 1885.61 809.701 1885.34 809.079 1885.32 787.234 1885.11 769.185 1877.8 754.934 1863.41 754.743 1863.21 754.476 1863.12 754.213 1863.12 754.076 1863.06 753.928 1863 753.774 1863ZM629.263 1773.18C628.561 1756.62 628.802 1733.07 629.343 1724.72 629.358 1724.31 684.812 1783.46 684.812 1783.46 685.213 1783.91 685.453 1784.44 685.494 1785 687.92 1816.58 713.348 1843.39 745.114 1855.19 745.635 1855.39 745.815 1855.96 745.474 1856.37 731.677 1873.55 709.378 1879.8 687.659 1870.92 648.494 1854.92 630.747 1808.88 629.263 1773.18ZM661.883 1710.46 694.093 1776.29 638.01 1710.53ZM747.601 1848.07C747.601 1848.13 747.521 1848.21 747.44 1848.21 746.718 1848.16 745.294 1847.64 744.833 1847.08 725.903 1823.92 711.029 1798.78 700.214 1771.67 682.393 1726.99 668.181 1681.42 657.579 1634.94 657.446 1634.34 657.606 1634.26 658.06 1634.7 693.983 1670.18 723.175 1709.6 745.635 1752.98 747.052 1755.71 747.794 1758.61 747.861 1761.68 748.383 1788.44 748.296 1817.24 747.601 1848.07Z" fill="#EEEEEE" transform="matrix(1.00086 0 0 1 -115.34 -1488.54)"/><text fill="#EEEEEE" font-family="Arial,Arial_MSFontService,sans-serif" font-weight="700" font-size="5" transform="matrix(13.5433 0 0 13.5317 514.03 649)">Created by Gabriel Baudon</text><text fill="#EEEEEE" font-family="Arial,Arial_MSFontService,sans-serif" font-weight="700" font-size="5" transform="matrix(13.5433 0 0 13.5317 514.03 717)">from the Noun Project</text></g></g></g></svg>