<svg width="398" height="397" xmlns="http://www.w3.org/2000/svg" xmlns:xlink="http://www.w3.org/1999/xlink" xml:space="preserve" overflow="hidden"><defs><clipPath id="clip0"><rect x="662" y="110" width="398" height="397"/></clipPath></defs><g clip-path="url(#clip0)" transform="translate(-662 -110)"><path d="M340.768 155.945C340.768 137.462 352.319 121.29 367.336 114.359 345.389 57.7573 279.545 17.3272 202.15 17.3272 124.756 17.3272 58.9124 57.7573 36.9647 114.359 53.1367 121.29 63.533 137.462 63.533 155.945 63.533 174.427 51.9816 190.599 36.9647 197.53 50.8264 232.184 82.0153 261.063 121.29 278.39L121.29 259.908 121.29 259.908C128.221 266.839 143.238 271.459 144.393 286.476 144.393 286.476 144.393 286.476 144.393 286.476 144.393 298.028 133.997 308.424 124.756 315.355 123.601 316.51 122.445 316.51 121.29 317.665L144.393 363.871 155.945 363.871C155.945 355.785 159.41 346.544 167.496 340.768 167.496 340.768 166.341 353.475 169.806 363.871L194.064 386.974 202.15 352.319 210.237 386.974 234.495 363.871C236.805 358.095 236.805 351.164 236.805 346.544L246.046 353.475C246.046 353.475 246.046 353.475 246.046 353.475 247.201 356.94 248.356 360.405 248.356 363.871L259.908 363.871 283.011 317.665C264.528 306.114 258.753 295.717 259.908 286.476 261.063 273.77 273.77 263.373 283.011 259.908L283.011 278.39C323.441 261.063 353.475 232.184 367.336 197.53 352.319 190.599 340.768 174.427 340.768 155.945ZM75.0845 202.15C99.3425 185.978 106.273 166.341 98.1874 144.393 133.997 152.479 167.496 213.702 167.496 213.702 108.584 239.115 75.0845 202.15 75.0845 202.15ZM202.15 294.562C198.685 294.562 194.064 286.476 179.048 271.459L202.15 225.253 225.253 271.459C210.237 286.476 205.616 294.562 202.15 294.562ZM236.805 213.702C236.805 213.702 270.304 151.324 306.114 144.393 298.028 166.341 304.958 185.978 329.217 202.15 329.217 202.15 294.562 239.115 236.805 213.702Z" fill="#E8E8E8" transform="matrix(1.00047 0 0 1 662 111.444)"/><text fill="#E8E8E8" font-family="Arial,Arial_MSFontService,sans-serif" font-weight="700" font-size="5" transform="matrix(11.5569 0 0 11.5515 662 689)">Created by Vectors Market</text><text fill="#E8E8E8" font-family="Arial,Arial_MSFontService,sans-serif" font-weight="700" font-size="5" transform="matrix(11.5569 0 0 11.5515 662 747)">from the Noun Project</text></g></svg>