<svg width="330" height="330" xmlns="http://www.w3.org/2000/svg" xmlns:xlink="http://www.w3.org/1999/xlink" xml:space="preserve" overflow="hidden"><defs><clipPath id="clip0"><rect x="411" y="608" width="330" height="330"/></clipPath><clipPath id="clip1"><path d="M579.805 491.307 844.648 760.648 571.861 1028.89 307.018 759.548Z" fill-rule="evenodd" clip-rule="evenodd"/></clipPath><clipPath id="clip2"><path d="M579.805 491.307 844.648 760.648 571.861 1028.89 307.018 759.548Z" fill-rule="evenodd" clip-rule="evenodd"/></clipPath><clipPath id="clip3"><path d="M579.805 491.307 844.648 760.648 506.483 1093.17 241.641 823.833Z" fill-rule="evenodd" clip-rule="evenodd"/></clipPath></defs><g clip-path="url(#clip0)" transform="translate(-411 -608)"><g clip-path="url(#clip1)"><g clip-path="url(#clip2)"><g clip-path="url(#clip3)"><path d="M171.282 246.007 206.453 246.007 214.607 52.9072 188.867 21.3903 163.128 52.9072Z" fill="#E8E8E8" transform="matrix(0.701134 0.713039 -0.713024 0.70114 579.055 492.043)"/><path d="M230.678 254.401 147.053 254.401C132.482 254.401 120.628 266.254 120.628 280.825 120.628 285.454 124.395 289.219 129.022 289.219 133.65 289.219 137.417 285.454 137.417 280.825 137.417 275.601 141.831 271.189 147.053 271.189L176.985 271.189C179.305 271.189 181.183 273.068 181.183 275.386L181.183 312.155C181.183 313.717 180.318 315.147 178.932 315.872 171.825 319.598 167.406 326.884 167.406 334.884 167.406 346.716 177.035 356.345 188.867 356.345 200.7 356.345 210.328 346.716 210.328 334.884 210.328 326.884 205.91 319.598 198.803 315.872 197.417 315.147 196.553 313.717 196.553 312.155L196.553 275.386C196.553 273.068 198.43 271.189 200.75 271.189L230.678 271.189C235.904 271.189 240.318 275.601 240.318 280.825 240.318 285.454 244.085 289.219 248.712 289.219 253.34 289.219 257.107 285.454 257.107 280.825 257.107 266.254 245.249 254.401 230.678 254.401Z" fill="#E8E8E8" transform="matrix(0.701134 0.713039 -0.713024 0.70114 579.055 492.043)"/><text fill="#E8E8E8" font-family="Arial,Arial_MSFontService,sans-serif" font-weight="700" font-size="5" transform="matrix(2.9427 2.99267 -2.9926 2.94272 264.833 801)">Created by iconcheese</text><text fill="#E8E8E8" font-family="Arial,Arial_MSFontService,sans-serif" font-weight="700" font-size="5" transform="matrix(2.9427 2.99267 -2.9926 2.94272 249.87 815)">from the Noun Project</text></g></g></g><path d="M556.5 666.5 647.653 666.5" stroke="#E8E8E8" stroke-width="20.625" stroke-linecap="round" stroke-miterlimit="8" fill="none" fill-rule="evenodd"/><path d="M465.5 695.5 622.111 695.5" stroke="#E8E8E8" stroke-width="20.625" stroke-linecap="round" stroke-miterlimit="8" fill="none" fill-rule="evenodd"/><path d="M510.5 728.5 601.653 728.5" stroke="#E8E8E8" stroke-width="20.625" stroke-linecap="round" stroke-miterlimit="8" fill="none" fill-rule="evenodd"/></g></svg>